<svg xmlns="http://www.w3.org/2000/svg" xmlns:xlink="http://www.w3.org/1999/xlink" viewBox="0 0 1024 1024"><defs><style>.cls-1{isolation:isolate;}.cls-2{fill:#fff;}.cls-3{fill:#f58c6a;}.cls-4{fill:#f69878;}.cls-13,.cls-5{opacity:0.15;}.cls-13,.cls-31,.cls-5{mix-blend-mode:overlay;}.cls-5{fill:url(#linear-gradient);}.cls-6{fill:#f37b67;}.cls-7{fill:url(#linear-gradient-2);}.cls-8{fill:url(#linear-gradient-3);}.cls-9{fill:red;}.cls-10{opacity:0.1;fill:url(#linear-gradient-4);}.cls-10,.cls-17,.cls-18,.cls-19,.cls-20,.cls-25{mix-blend-mode:multiply;}.cls-11{fill:#ccdde7;}.cls-12{fill:#abbac3;}.cls-14,.cls-17,.cls-20{fill:#191919;}.cls-15{fill:#292929;}.cls-16{fill:#373737;}.cls-17,.cls-18,.cls-19,.cls-31{opacity:0.25;}.cls-18{fill:url(#linear-gradient-5);}.cls-19{fill:url(#linear-gradient-6);}.cls-20{opacity:0.13;}.cls-21{fill:lime;}.cls-22{fill:#1a1a1a;}.cls-23{fill:#252525;}.cls-24,.cls-25{fill:#61150d;}.cls-25{opacity:0.5;}.cls-26{opacity:0.95;}.cls-27{fill:#736357;}.cls-28{fill:#220f0f;}.cls-29{fill:#a36841;}.cls-30{fill:#9d613d;}.cls-31{fill:none;stroke:#000;stroke-linecap:round;stroke-miterlimit:10;stroke-width:4px;}.cls-32{fill:blue;}</style><linearGradient id="linear-gradient" x1="321.68" y1="286" x2="321.68" y2="431.12" gradientUnits="userSpaceOnUse"><stop offset="0"/><stop offset="1" stop-opacity="0"/></linearGradient><linearGradient id="linear-gradient-2" x1="438.5" y1="235.5" x2="507.96" y2="235.5" gradientUnits="userSpaceOnUse"><stop offset="0" stop-color="#f69878"/><stop offset="1" stop-color="#f37b67"/></linearGradient><linearGradient id="linear-gradient-3" x1="202" y1="235.5" x2="152.85" y2="235.5" gradientTransform="translate(383.22 471) rotate(180)" xlink:href="#linear-gradient-2"/><linearGradient id="linear-gradient-4" x1="321.5" y1="490" x2="321.5" y2="187.52" gradientUnits="userSpaceOnUse"><stop offset="0" stop-color="#f69878"/><stop offset="1" stop-color="#f69878" stop-opacity="0"/></linearGradient><linearGradient id="linear-gradient-5" x1="657.77" y1="835.05" x2="657.77" y2="786.3" gradientUnits="userSpaceOnUse"><stop offset="0" stop-opacity="0"/><stop offset="1"/></linearGradient><linearGradient id="linear-gradient-6" x1="794.72" y1="835.05" x2="794.72" y2="786.3" xlink:href="#linear-gradient-5"/></defs><title>survivorMaleB</title><g class="cls-1"><g id="Layer_2" data-name="Layer 2"><g id="Layer_1-2" data-name="Layer 1"><rect class="cls-2" width="1024" height="1024"/><rect class="cls-3" x="624" y="524" width="400" height="240"/><rect class="cls-4" width="643" height="490"/><path class="cls-5" d="M366,299h0a89.81,89.81,0,0,0-19.13,2.07h0a89.33,89.33,0,0,1-19.14,2.07H315.59a89.26,89.26,0,0,1-19.14-2.07h0A89.81,89.81,0,0,0,277.32,299h0a43.74,43.74,0,0,0-33,15c-6.51,7.48-12.32,16.72-11.37,25.21l15.3,137,71.88,5.58,1.52-2.82,1.52,2.82,71.87-5.58,15.31-137c.95-8.49-4.86-17.73-11.38-25.21A43.71,43.71,0,0,0,366,299Z"/><rect class="cls-4" x="824" y="134" width="200" height="390"/><path class="cls-6" d="M442.55,216.37h8.29a18.41,18.41,0,0,1,18.41,18.41v1.43a18.41,18.41,0,0,1-18.41,18.41h-8.29a0,0,0,0,1,0,0V216.37A0,0,0,0,1,442.55,216.37Z"/><path class="cls-7" d="M437.85,216.37h8.29a18.41,18.41,0,0,1,18.41,18.41v1.43a18.41,18.41,0,0,1-18.41,18.41h-8.29a0,0,0,0,1,0,0V216.37a0,0,0,0,1,0,0Z"/><ellipse class="cls-6" cx="451.21" cy="235.5" rx="7.93" ry="4.4" transform="translate(132.36 632.21) rotate(-78.77)"/><path class="cls-6" d="M173.56,216.37h8.29a18.41,18.41,0,0,1,18.41,18.41v1.43a18.41,18.41,0,0,1-18.41,18.41h-8.29a0,0,0,0,1,0,0V216.37A0,0,0,0,1,173.56,216.37Z" transform="translate(373.83 471) rotate(-180)"/><path class="cls-8" d="M178.26,216.37h8.29A18.41,18.41,0,0,1,205,234.78v1.43a18.41,18.41,0,0,1-18.41,18.41h-8.29a0,0,0,0,1,0,0V216.37a0,0,0,0,1,0,0Z" transform="translate(383.22 471) rotate(-180)"/><ellipse class="cls-6" cx="191.61" cy="235.5" rx="4.4" ry="7.93" transform="translate(-42.19 41.82) rotate(-11.23)"/><polygon class="cls-4" points="579.88 654.47 544.43 654.47 491.56 654.47 460 654.47 460 654.47 445.83 654.47 428.62 681.05 422.17 725.5 423.38 763.65 432.45 812.23 457.05 819.12 460 823.21 460 823.21 491.56 823.21 544.43 823.21 579.88 823.21 615.98 823.21 615.98 654.47 579.88 654.47"/><polygon class="cls-4" points="212.12 681.05 194.91 654.47 180.74 654.47 180.74 654.47 149.18 654.47 96.31 654.47 60.86 654.47 24.76 654.47 24.76 823.21 60.86 823.21 96.31 823.21 149.18 823.21 180.74 823.21 180.74 823.21 183.69 819.12 208.29 812.23 217.36 763.65 218.57 725.5 212.12 681.05"/><rect class="cls-4" x="624" y="864.49" width="400" height="159.51"/><rect class="cls-9" x="992" width="32" height="32"/><rect class="cls-10" y="139.59" width="643" height="350.41"/><ellipse class="cls-4" cx="320.36" cy="746.08" rx="73.24" ry="132.26"/><path class="cls-11" d="M160.83,490v534H480V490ZM354,768.16l-5.21,10.71c-11.33,23.28-44.31,23.77-56.33.85l-6-11.51-7-21.25,4.82-20.25,20.86-3.18,15.39-1.06,14.54,1.06L356,726.71,360.8,747Z"/><rect class="cls-12" x="152.9" y="654.47" width="7.84" height="188.74" transform="translate(313.64 1497.67) rotate(-180)"/><rect class="cls-12" x="480" y="654.47" width="7.84" height="188.74" transform="translate(967.84 1497.67) rotate(-180)"/><g class="cls-13"><rect x="145.05" y="654.47" width="7.84" height="188.74" transform="translate(297.95 1497.67) rotate(-180)"/><rect x="487.78" y="654.47" width="7.84" height="188.74" transform="translate(983.4 1497.67) rotate(-180)"/></g><path class="cls-12" d="M320.57,722.47l14.55,1.06L356,726.71,360.8,747,354,768.16l-5.21,10.71a31.56,31.56,0,0,1-56.33.85l-6-11.51-7-21.25,4.82-20.25,20.86-3.18,15.38-1.06m0-6.08h-.42l-15.38,1.06a4.1,4.1,0,0,0-.49.06l-20.87,3.17a6.1,6.1,0,0,0-5,4.61l-4.81,20.26a6.07,6.07,0,0,0,.14,3.3l7,21.25a5.39,5.39,0,0,0,.39.93l6,11.5a37.64,37.64,0,0,0,67.19-1l5.21-10.72a5.73,5.73,0,0,0,.33-.81l6.76-21.2a6.08,6.08,0,0,0,.12-3.25l-4.81-20.26a6.1,6.1,0,0,0-5-4.61L336,717.52a3.55,3.55,0,0,0-.47-.06L321,716.4Z"/><rect class="cls-14" x="643" width="381" height="134"/><rect class="cls-14" x="643" y="134" width="181" height="390"/><rect class="cls-15" x="624" y="764" width="400" height="260"/><rect class="cls-16" x="713.32" y="395.74" width="26.58" height="5.41" rx="2.7" ry="2.7"/><rect class="cls-16" x="713.32" y="386.11" width="26.58" height="5.41" rx="2.7" ry="2.7"/><rect class="cls-16" x="713.32" y="405.83" width="26.58" height="5.41" rx="2.7" ry="2.7"/><rect class="cls-16" x="713.32" y="221.15" width="26.58" height="5.41" rx="2.7" ry="2.7"/><rect class="cls-16" x="713.32" y="210.84" width="26.58" height="5.41" rx="2.7" ry="2.7"/><rect class="cls-16" x="713.32" y="231.25" width="26.58" height="5.41" rx="2.7" ry="2.7"/><path class="cls-16" d="M806,315.06l-8.41,15.88-.11,13.64L779,393.74l-11.25,31.05L756,456.55a25.15,25.15,0,0,1-7.8,10.82h0a25.17,25.17,0,0,1-11.82,5.27l-6,1a25.15,25.15,0,0,1-9.7-.34l-4.78-1.11a25.16,25.16,0,0,1-12.13-6.73l-.59-.59a25.08,25.08,0,0,1-5.47-8.21L689.55,437l-11.5-28.5-4-13.8-6-26.11L666.6,353l-.05-26.66h-20.5V483.78l57.24,18H797l13-48,10.5-98.48V319.61Z"/><path class="cls-16" d="M806,139.59l-8.17,15.88-.12,13.64L779,218.27l-11.25,31L756,281.09a25.15,25.15,0,0,1-7.8,10.82h0a25.15,25.15,0,0,1-11.82,5.26l-6,1a25.14,25.14,0,0,1-9.7-.33l-4.78-1.11A25.32,25.32,0,0,1,703.69,290l-.59-.59a25,25,0,0,1-5.47-8.22l-8.08-19.59-11.5-28.5-4-13.8-6-26.1L666.6,177.5l-.05-26.65h-20.5V308.31l57.24,18H797l13-48,10.5-98.49V144.14Z"/><rect class="cls-17" x="631.59" y="786.3" width="383.62" height="16.15"/><path class="cls-18" d="M682.15,786.3a48.75,48.75,0,0,1-48.75,48.75V786.3Z"/><path class="cls-19" d="M770.35,786.3a48.75,48.75,0,0,0,48.75,48.75V786.3Z"/><rect class="cls-20" x="631.59" y="912.37" width="383.62" height="40.99"/><rect class="cls-20" x="631.59" y="912.37" width="383.62" height="12.09"/><rect class="cls-21" x="992" width="32" height="32"/><path class="cls-22" d="M903.48,647.45c0,.49-9.11,32.36-9.11,32.36L938.77,714,988,687.13s1-34,1-35.15-10.78-22.62-10.78-22.62l-39.12-11.25-23.89,4.12Z"/><path class="cls-22" d="M979.73,154.71l-48.4-11.38s-28.22,2.88-30.65,8.65a51.91,51.91,0,0,0-2.27,7.14l-19,3.63,1.82,5.47L883.75,181l1.12,12.89-5.47,15.42L878.56,226l-7,11.78L859.22,251l13.27,8.74L871,261.21l20.48,15.48,18.21-2.28,25.79,1.22,17.14,10.16,25.34-3.49s3.94-.91,4.55-12.59,7.43-58.41,7.43-58.41V172ZM931.84,227.6a5.3,5.3,0,0,1-5.77,4.79l-8.62-.8a5.3,5.3,0,0,1-4.79-5.77l2.26-24.3a5.3,5.3,0,0,1,5.77-4.79l8.62.8a5.3,5.3,0,0,1,4.79,5.77Z"/><rect class="cls-14" x="631.59" y="962.95" width="383.62" height="48.93"/><rect class="cls-12" x="267.94" y="824.12" width="27.27" height="15.91" rx="2.85" ry="2.85"/><rect class="cls-23" x="594.67" y="650.26" width="19.61" height="178.73"/><path class="cls-12" d="M420,721.71h14.52A16.33,16.33,0,0,1,450.84,738v0a16.33,16.33,0,0,1-16.33,16.33H420a6.12,6.12,0,0,1-6.12-6.12V727.82a6.12,6.12,0,0,1,6.12-6.12Z"/><circle class="cls-2" cx="430.21" cy="738.04" r="11.63"/><circle class="cls-12" cx="430.21" cy="738.04" r="7.72"/><path class="cls-12" d="M174.31,752a2.71,2.71,0,0,0,2.73,2.69h.29l6.6,0h.3a2.7,2.7,0,0,0,2.68-2.73v-.29l-.12-17.1h0l0-3-.05-7.1v-.3a2.71,2.71,0,0,0-2.72-2.69h-.3l-6.6,0h-.29a2.71,2.71,0,0,0-2.69,2.73v.29l0,6.5h0l0,2.84v.76h0l.12,17.1Z"/><path class="cls-12" d="M456.28,752a2.71,2.71,0,0,0,2.72,2.69h.3l6.6,0h.29a2.71,2.71,0,0,0,2.69-2.73v-.29l-.12-17.1h0l0-3-.05-7.1v-.3a2.71,2.71,0,0,0-2.73-2.69h-.29l-6.6,0h-.3a2.7,2.7,0,0,0-2.68,2.73v.29l0,6.5h0l0,2.84v.76h0l.12,17.1Z"/><rect class="cls-24" x="114.49" y="647.75" width="40.2" height="187.3" transform="translate(269.17 1482.8) rotate(-180)"/><rect class="cls-25" x="114.49" y="647.75" width="7.99" height="187.3" transform="translate(236.97 1482.8) rotate(-180)"/><g class="cls-26"><path class="cls-27" d="M635.24,979.15l8.75-8.23a2.13,2.13,0,0,1,2.81-.11l2.83,2.29a2.13,2.13,0,0,0,2.94-.24l8.1-9.19a2.14,2.14,0,0,1,2.56-.5l6.89,3.44a2.12,2.12,0,0,0,2.52-.46l9.18-9.94a2.14,2.14,0,0,0,.36-2.36l-4-8.57a2.14,2.14,0,0,1,.18-2.14l6.21-8.82a2.14,2.14,0,0,1,3.48,0l6.55,9a2.14,2.14,0,0,1,.32,1.88L692,954.76a2.15,2.15,0,0,0,.08,1.48l4.21,9.69a1.87,1.87,0,0,0,.22.39l8.45,11.93a2.15,2.15,0,0,0,1.75.9H750.4a2.11,2.11,0,0,0,1.26-.41l5.53-4a2.13,2.13,0,0,1,2.69.14l3.43,3.1a2.13,2.13,0,0,0,2.75.1l4.45-3.5a2.14,2.14,0,0,0,0-3.4l-6.63-4.91a2.14,2.14,0,0,1-.44-3l3.62-4.85a2.13,2.13,0,0,1,3.11-.34l3.39,2.92a2.15,2.15,0,0,0,2.77,0l5.41-4.54a2.12,2.12,0,0,1,2.37-.24l5.54,2.95a2.14,2.14,0,0,1,.91,2.84l-2.76,5.51a2.13,2.13,0,0,0,.9,2.83l3.62,1.95a2.14,2.14,0,0,0,3-1l4.1-9.41a2.12,2.12,0,0,0-.26-2.14l-5.46-7.24a2.14,2.14,0,0,1,.82-3.24l9.35-4.21a2.13,2.13,0,0,1,2.81,1l3.22,6.81a2.26,2.26,0,0,1,.19.72l1.54,16.71a2.15,2.15,0,0,1-.05.67l-1.11,4.91a2.14,2.14,0,0,0,1.35,2.47l1.81.67a2.3,2.3,0,0,0,.74.13h13.52a2.18,2.18,0,0,0,1.4-.52l4.29-3.71a2.14,2.14,0,0,1,2.85.05l1.82,1.68a2.1,2.1,0,0,1,.65,1.18l.92,4.94a2.13,2.13,0,0,0,2.53,1.71l4.51-.93a2.14,2.14,0,0,0,1.71-2.1v-4.07a2.12,2.12,0,0,1,.92-1.75l4.79-3.34a2.12,2.12,0,0,0,.92-1.75v-9.08a2.12,2.12,0,0,1,1.89-2.12l6.82-.78a2.12,2.12,0,0,1,2.08,1l3.29,5.51a2.12,2.12,0,0,0,1.83,1h1.43a2.14,2.14,0,0,0,2.07-1.64l1.64-6.81a2.16,2.16,0,0,0-.55-2l-7.71-7.83a2.09,2.09,0,0,0-1.67-.63l-9.78.66a2.13,2.13,0,0,1-2.25-1.76L853,939a2.14,2.14,0,0,1,2.07-2.5l11.36-.23a2.15,2.15,0,0,1,1.47.55l10.46,9.39a2.68,2.68,0,0,1,.28.3l7.07,9.31a2.16,2.16,0,0,1,.39,1.72l-2.63,12.76a2.84,2.84,0,0,1-.17.49l-2.44,5.1a2.14,2.14,0,0,0,.34,2.35l5.69,6.3a2.14,2.14,0,0,0,3,.17l5.59-5a2.11,2.11,0,0,1,1.42-.54h45.49a2.14,2.14,0,0,0,1.6-.72l5.06-5.7a2.14,2.14,0,0,1,2.75-.38l5.25,3.36a2.16,2.16,0,0,1,.68.7l3.34,5.57a2.15,2.15,0,0,1-.11,2.36l-.49.66a2.14,2.14,0,0,0,1.19,3.33l8.91,2.34a2.14,2.14,0,0,0,2.18-.69l3.25-3.85a2.16,2.16,0,0,0,.39-2.07l-3.26-9.52a2.36,2.36,0,0,1-.11-.6l-.5-11.07a2.14,2.14,0,0,1,1.22-2L981,957.4a2.13,2.13,0,0,1,2.78.89l2.42,4.37a2.07,2.07,0,0,1,.24,1.36L985,973.51a2.1,2.1,0,0,0,.25,1.39l2.6,4.61a2.14,2.14,0,0,0,2.32,1l6.64-1.45a2.15,2.15,0,0,0,1.48-1.19h0a2.14,2.14,0,0,1,3.45-.62l.67.67a2.13,2.13,0,0,0,1.51.62h15v42.37H631.59V979.73Z"/><path class="cls-27" d="M669.43,947.5l.57,3.77a2.59,2.59,0,0,1-1.84,2.89l-1.86.54a2.6,2.6,0,0,1-3.13-1.52l-1-2.51a2.6,2.6,0,0,1,.81-3l2.29-1.8a2.63,2.63,0,0,1,3.66.44h0A2.65,2.65,0,0,1,669.43,947.5Z"/><path class="cls-27" d="M767.27,935.46l7.07.53a4.84,4.84,0,0,1,4.48,4.55l.2,3.58a4.84,4.84,0,0,1-4.06,5.06l-5,.8a4.83,4.83,0,0,1-5.16-2.72l-2.31-4.91a4.84,4.84,0,0,1,2.31-6.44h0A4.86,4.86,0,0,1,767.27,935.46Z"/><path class="cls-27" d="M794.43,932.83l-3.64,1.24a2.63,2.63,0,0,0-1.73,3l.38,1.91a2.62,2.62,0,0,0,2.82,2.1l2.72-.25a2.63,2.63,0,0,0,2.34-2.13l.54-2.9a2.63,2.63,0,0,0-2.09-3.07h0A2.65,2.65,0,0,0,794.43,932.83Z"/><path class="cls-27" d="M879.56,937.56,882,940a1.53,1.53,0,0,0,2.23-.09l2.81-3.25a1.53,1.53,0,0,0-1.41-2.51l-5.23.86A1.53,1.53,0,0,0,879.56,937.56Z"/><path class="cls-27" d="M949.81,950.21l-2.32.79a3.06,3.06,0,0,0-1.76,4.25L947.6,959a3.07,3.07,0,0,0,3.77,1.53l.69-.25a3.07,3.07,0,0,1,3.9,1.83l1.62,4.42a3.1,3.1,0,0,1,.18,1.35h0a3.05,3.05,0,0,0,2.94,3.36l1.2,0a3,3,0,0,0,3.15-2.83l.13-1.81a12.59,12.59,0,0,0-5.61-11.4L957.66,954l-5.16-3.45A3.05,3.05,0,0,0,949.81,950.21Z"/><path class="cls-27" d="M994.12,960.79l-3.12,4.9a1.43,1.43,0,0,0,.24,1.82L994,970a1.43,1.43,0,0,0,2-.08l1.4-1.53a1.42,1.42,0,0,0-.75-2.35h0a1.42,1.42,0,0,1-.94-2.1l1-1.71a1.42,1.42,0,0,0-1.58-2.08l-.12,0A1.46,1.46,0,0,0,994.12,960.79Z"/><path class="cls-27" d="M780.63,815.84l-8.06,11.83a5.31,5.31,0,0,0,0,6l3.24,4.79a5.29,5.29,0,0,0,7.72,1.16h0a5.3,5.3,0,0,1,8.22,2.07l.73,1.73a5.25,5.25,0,0,1-.24,4.59l-3.56,6.5a5.3,5.3,0,0,0,6.42,7.54l11.38-4a5.31,5.31,0,0,0,3.53-5V833.81a5.24,5.24,0,0,0-.2-1.42l-5.47-19.59a5.29,5.29,0,0,0-6.73-3.61l-14.22,4.59A5.29,5.29,0,0,0,780.63,815.84Z"/><path class="cls-27" d="M658.22,815.66v14.86a4.47,4.47,0,0,0,2.72,4.11l5,2.14a22.86,22.86,0,0,0,14.93,1l7-1.9a10.2,10.2,0,0,0,7.5-9.84h0a10.2,10.2,0,0,0-5.47-9l-1.06-.55a10.21,10.21,0,0,0-9.14-.16l-4.36,2.1A4.48,4.48,0,0,1,670,817.3l-4-4.57a4.47,4.47,0,0,0-6.84.12h0A4.43,4.43,0,0,0,658.22,815.66Z"/><path class="cls-27" d="M673.09,814.21h0a2.05,2.05,0,0,0,2.32.17l3.2-1.89a2,2,0,0,0,.16-3.41l-1-.72a2,2,0,0,0-2.75.34l-2.2,2.61A2,2,0,0,0,673.09,814.21Z"/><path class="cls-27" d="M663.64,841.67,668,843.2a3.39,3.39,0,0,1,1.58,5.24l-2.16,2.87a3.39,3.39,0,0,1-4.61.76l-3.14-2.14a3.38,3.38,0,0,1-1.22-4.12l1-2.26A3.38,3.38,0,0,1,663.64,841.67Z"/><path class="cls-27" d="M848.08,860.29l9.77,3.46a7.63,7.63,0,0,1,3.56,11.78L856.56,882a7.63,7.63,0,0,1-10.4,1.72l-7.08-4.81a7.64,7.64,0,0,1-2.74-9.28l2.16-5.1A7.63,7.63,0,0,1,848.08,860.29Z"/><path class="cls-27" d="M771.48,843.4l5.74,2.34a2.55,2.55,0,0,1,1.54,2.92l-.74,3.41a2.56,2.56,0,0,1-3.36,1.87l-3.77-1.33a2.55,2.55,0,0,1-1.62-1.73L768,846.46A2.57,2.57,0,0,1,771.48,843.4Z"/><path class="cls-27" d="M936.69,373l-8.06,11.83a5.29,5.29,0,0,0,0,5.95l3.23,4.8a5.31,5.31,0,0,0,7.73,1.15h0a5.3,5.3,0,0,1,8.22,2.07l.73,1.73a5.32,5.32,0,0,1-.24,4.59l-3.56,6.5a5.3,5.3,0,0,0,6.41,7.54l11.38-4a5.3,5.3,0,0,0,3.53-5V391a5.23,5.23,0,0,0-.19-1.42L960.39,370a5.3,5.3,0,0,0-6.74-3.61L939.44,371A5.29,5.29,0,0,0,936.69,373Z"/><path class="cls-27" d="M895.55,219.39h0a2,2,0,0,0,2.31.17l3.2-1.89a2,2,0,0,0,.16-3.4l-1-.73a2,2,0,0,0-2.75.34l-2.2,2.61A2,2,0,0,0,895.55,219.39Z"/><path class="cls-27" d="M890.44,248.39a3.39,3.39,0,0,1,1.57,5.23l-2.15,2.87a3.4,3.4,0,0,1-4.62.76l-3.14-2.14a3.39,3.39,0,0,1-1.21-4.12l1-2.26"/><path class="cls-27" d="M927.54,400.58l5.74,2.34a2.55,2.55,0,0,1,1.54,2.92l-.75,3.41a2.56,2.56,0,0,1-3.36,1.87l-3.77-1.33a2.57,2.57,0,0,1-1.62-1.73l-1.22-4.41A2.57,2.57,0,0,1,927.54,400.58Z"/><path class="cls-27" d="M855.15,857.82l-6.12-1a2.56,2.56,0,0,1-2.15-2.51l0-3.49a2.57,2.57,0,0,1,2.86-2.57l4,.46a2.53,2.53,0,0,1,2,1.33l2.18,4A2.57,2.57,0,0,1,855.15,857.82Z"/><path class="cls-27" d="M861.12,887,863,889.7a2.16,2.16,0,0,0,3.28.33l3.57-3.47a2.15,2.15,0,0,0-1.79-3.68l-5.43.73A2.16,2.16,0,0,0,861.12,887Z"/><path class="cls-27" d="M961.31,900.72l.53,6.17a2.56,2.56,0,0,1-1.9,2.7l-3.38.89a2.57,2.57,0,0,1-3.2-2.14l-.52-4a2.56,2.56,0,0,1,.8-2.22l3.38-3.1A2.56,2.56,0,0,1,961.31,900.72Z"/><path class="cls-27" d="M988.1,887.78l2.19-2.49a2.16,2.16,0,0,0-.49-3.26l-4.23-2.61a2.16,2.16,0,0,0-3.13,2.64l2,5.09A2.16,2.16,0,0,0,988.1,887.78Z"/><path class="cls-27" d="M96.67,746.69l10.21-1.82a7.63,7.63,0,0,1,8.91,8.49l-1,8a7.63,7.63,0,0,1-8.19,6.64L98,767.32a7.64,7.64,0,0,1-7-6.72l-.65-5.5A7.64,7.64,0,0,1,96.67,746.69Z"/><path class="cls-27" d="M101.6,741.05l-5.82,2.16a2.57,2.57,0,0,1-3.11-1.12l-1.75-3a2.57,2.57,0,0,1,1.22-3.65l3.68-1.57a2.59,2.59,0,0,1,2.36.19l3.89,2.43A2.57,2.57,0,0,1,101.6,741.05Z"/><path class="cls-27" d="M121.19,763.44l3,1.45a2.15,2.15,0,0,0,3-1.34l1.39-4.77a2.15,2.15,0,0,0-3.37-2.32l-4.37,3.33A2.15,2.15,0,0,0,121.19,763.44Z"/><path class="cls-27" d="M159.41,680.35l-1.27-3.06a2.17,2.17,0,0,0-3.15-1l-4.2,2.67a2.16,2.16,0,0,0,1,4l5.47.39A2.16,2.16,0,0,0,159.41,680.35Z"/><polygon class="cls-27" points="945.57 338.94 951.11 354.33 951.11 366.11 953.88 380.19 953.88 414.05 953.88 431.29 956.35 443.3 966.05 455.31 982.51 439.91 990.83 377.73 979.74 333.57 951.42 328.55 945.57 338.94"/><path class="cls-27" d="M863,219.7l3.83-.56a1.61,1.61,0,0,1,1.64,2.37L867,224a1.58,1.58,0,0,1-1.24.81l-2.49.25a1.6,1.6,0,0,1-1.76-1.64l.05-2.18A1.61,1.61,0,0,1,863,219.7Z"/><path class="cls-27" d="M845.06,170.64l18,1.17,2,7.18-5.66,8.53-1.75,7.16-.27.58,6.64,4.1a3.35,3.35,0,0,1,1.37,1.67l3.13,8.39a3.29,3.29,0,0,1-.88,3.61l-2.68,2.43a3.3,3.3,0,0,1-4.86-.45,3.32,3.32,0,0,0-5.31,0l-.7.94a3.32,3.32,0,0,0-.54,2.83l1.2,4.48a3.32,3.32,0,0,1-5,3.63l-1.52-1-1.95,7.95-3.28,6.93-7.69,5.85-7.71-11.81,4.21-39Z"/><path class="cls-27" d="M897.06,363.67l1.72,10.74a3.5,3.5,0,0,0,3.46,3h.94a3.5,3.5,0,0,0,2.48-1l1.89-1.89a3.51,3.51,0,0,0-1.14-5.72h0a3.51,3.51,0,0,1-2.15-3.62l.2-1.9a3.51,3.51,0,0,0-5.37-3.34l-.45.28A3.52,3.52,0,0,0,897.06,363.67Z"/><path class="cls-27" d="M769.62,696.59l34.73-8.65a11.52,11.52,0,0,0,2.2-.78l4.25-2a11.53,11.53,0,0,1,13.87,3.06h0a11.55,11.55,0,0,0,9.51,4.18l21.2-1.13,2.14,7.51-18.94,17.51L795,714.82Z"/><path class="cls-27" d="M829.26,643.41l-2.35,4.12a4.61,4.61,0,0,0,2.75,6.72h0a4.63,4.63,0,0,0,4.65-1.32l3.07-3.34a4.61,4.61,0,0,0,0-6.24l-.72-.78A4.61,4.61,0,0,0,829.26,643.41Z"/><path class="cls-27" d="M680.56,148.72l-7.3,9.37a3.26,3.26,0,0,0-.15,3.8l7.45,11.36a3.27,3.27,0,0,1,.43,2.62l-3.54,13.47a3.26,3.26,0,0,0,2.45,4l12.81,2.85a3.28,3.28,0,0,1,2.54,2.8l2.28,19.29a3.26,3.26,0,0,0,4.13,2.76L715,217.27a3.26,3.26,0,0,1,3.87,1.8L725,232.78a3.26,3.26,0,0,0,4,1.75l29.36-10.08a3.27,3.27,0,0,0,2.1-3.91l-1.89-7.24a3.28,3.28,0,0,1,1.09-3.35l11.71-9.55a3.27,3.27,0,0,0,1.2-2.53V186.11a3.33,3.33,0,0,1,.78-2.13L782,174a3.26,3.26,0,0,0-1.14-5.1l-4.94-2.22a3.27,3.27,0,0,1-1.24-5l5.25-6.78a3.26,3.26,0,0,0-1.83-5.17l-42.11-10a3.39,3.39,0,0,0-1.23,0l-52.1,7.81A3.24,3.24,0,0,0,680.56,148.72Z"/><path class="cls-27" d="M811.8,143.59l-12.6,5.25a3.24,3.24,0,0,0-2,2.45l-1.38,7.93a3.24,3.24,0,0,0,.07,1.42l3.18,11.55a3.19,3.19,0,0,1,0,1.81l-5.28,17.48a3.29,3.29,0,0,0,.12,2.23l4,9.35a3.26,3.26,0,0,1-1,3.84l-15,12a3.28,3.28,0,0,0-1.22,2.55V239.8a3.27,3.27,0,0,1-1.57,2.79l-17.73,10.8A3.26,3.26,0,0,0,760,257l5,20.59a3.24,3.24,0,0,1-.38,2.47l-6.3,10.38a3.24,3.24,0,0,1-2.05,1.48l-26,6.06a3.27,3.27,0,0,0-2.4,2.31h0a3.27,3.27,0,0,1-5.61,1.28l-11.34-13a3.28,3.28,0,0,0-2.31-1.12l-16.3-.7a3.28,3.28,0,0,1-3.13-3.33l.38-20.05a3.26,3.26,0,0,0-1.41-2.75l-12.39-8.51a3.24,3.24,0,0,1-1.38-2.17l-7.48-46.74a1.5,1.5,0,0,1,0-.2l-1.67-17.09a3.24,3.24,0,0,0-1.28-2.28L657.77,179a3.25,3.25,0,0,1-1.18-3.46l6-22a3.36,3.36,0,0,1,.4-.91l4.15-6.43a3.26,3.26,0,0,0-1.85-4.91l-14.1-4a3.23,3.23,0,0,0-3,.61c-2.75,2.25-2.56,8.25-1.07,8.25,1.92,0-.32,78.23.13,81.43.42,2.89,3.1,55.06,4.57,64.73a3.24,3.24,0,0,0,1.6,2.33l27.17,20.3a2.38,2.38,0,0,0,.51.24l44.42,16.13a3.36,3.36,0,0,0,1.26.19l51.51-2.4a3.28,3.28,0,0,0,2.41-1.24l23.88-30.26a3.3,3.3,0,0,0,.68-1.57l9.14-65.93,9.92-65.57a3.23,3.23,0,0,0-.24-1.79l-5.66-13.05a1.77,1.77,0,0,0-.15-.31L815.9,145A3.27,3.27,0,0,0,811.8,143.59Z"/><path class="cls-27" d="M680.56,328.07l-7.3,9.38a3.25,3.25,0,0,0-.15,3.79l7.45,11.36a3.27,3.27,0,0,1,.43,2.62l-3.54,13.47a3.28,3.28,0,0,0,2.45,4l12.81,2.84a3.28,3.28,0,0,1,2.54,2.81l2.28,19.29a3.26,3.26,0,0,0,4.13,2.75L715,396.62a3.27,3.27,0,0,1,3.87,1.81l6.16,13.7a3.26,3.26,0,0,0,4,1.75l29.36-10.08a3.27,3.27,0,0,0,2.1-3.91l-1.89-7.23a3.29,3.29,0,0,1,1.09-3.36l11.71-9.55a3.27,3.27,0,0,0,1.2-2.53V365.46a3.28,3.28,0,0,1,.78-2.12l8.62-10a3.27,3.27,0,0,0-1.14-5.11L775.91,346a3.26,3.26,0,0,1-1.24-5l5.25-6.79a3.26,3.26,0,0,0-1.83-5.17l-42.11-10a3,3,0,0,0-1.23,0l-52.1,7.8A3.28,3.28,0,0,0,680.56,328.07Z"/><path class="cls-27" d="M811.8,323l-12.6,5.24a3.26,3.26,0,0,0-2,2.45l-1.38,7.93a3.3,3.3,0,0,0,.07,1.43l3.18,11.55a3.19,3.19,0,0,1,0,1.81l-5.28,17.47a3.29,3.29,0,0,0,.12,2.23l4,9.36a3.25,3.25,0,0,1-1,3.83l-15,12a3.28,3.28,0,0,0-1.22,2.55v18.39a3.27,3.27,0,0,1-1.57,2.79l-17.73,10.8A3.26,3.26,0,0,0,760,436.3l5,20.59a3.24,3.24,0,0,1-.38,2.47l-6.3,10.38a3.2,3.2,0,0,1-2.05,1.48l-26,6.07a3.26,3.26,0,0,0-2.4,2.3h0a3.27,3.27,0,0,1-5.61,1.28l-11.34-13a3.27,3.27,0,0,0-2.31-1.11l-16.3-.71a3.27,3.27,0,0,1-3.13-3.32l.38-20.06a3.26,3.26,0,0,0-1.41-2.75l-12.39-8.5a3.28,3.28,0,0,1-1.38-2.18l-7.48-46.74a1.36,1.36,0,0,1,0-.2l-1.67-17.08a3.26,3.26,0,0,0-1.28-2.29l-6.11-4.61a3.27,3.27,0,0,1-1.18-3.47l6-22a3.3,3.3,0,0,1,.4-.9l4.15-6.44a3.25,3.25,0,0,0-1.85-4.9l-14.1-4a3.26,3.26,0,0,0-3,.61c-2.75,2.25-8.67,7.23-7.18,7.23,1.92,0-8.28,79.26-7.83,82.45.41,2.9,8.28,54.62,9.75,64.29a3.25,3.25,0,0,0,1.6,2.33l36.06,20.75a4,4,0,0,0,.51.24l44.42,16.12a3.17,3.17,0,0,0,1.26.19l51.51-2.4a3.24,3.24,0,0,0,2.41-1.24l23.88-30.26a3.26,3.26,0,0,0,.68-1.57l9.14-65.93,9.92-65.57a3.24,3.24,0,0,0-.24-1.79L818.49,329a1.68,1.68,0,0,0-.15-.3l-2.44-4.35A3.26,3.26,0,0,0,811.8,323Z"/><path class="cls-27" d="M723.07,422.29l-12.09,5a4,4,0,0,0-2.43,3.61l0,4.82a20,20,0,0,0,4.22,12.48l3.89,5a9,9,0,0,0,10.54,2.8h0a9,9,0,0,0,5.51-7.5l.09-1a9,9,0,0,0-3-7.49l-3.17-2.85a3.93,3.93,0,0,1-.9-4.68l2.37-4.78a3.93,3.93,0,0,0-2.4-5.52h0A4,4,0,0,0,723.07,422.29Z"/><path class="cls-27" d="M729.27,433.91h0a1.79,1.79,0,0,0,.65,1.94l2.61,2a1.8,1.8,0,0,0,2.83-1l.25-1.06a1.79,1.79,0,0,0-1.2-2.12l-2.87-.92A1.81,1.81,0,0,0,729.27,433.91Z"/><path class="cls-27" d="M703.73,435.47l.22,4a3,3,0,0,1-3.73,3.05l-3.06-.78a3,3,0,0,1-2.18-3.5l.68-3.28a3,3,0,0,1,2.94-2.38l2.17,0A3,3,0,0,1,703.73,435.47Z"/><path class="cls-27" d="M737,255.71h0a1.81,1.81,0,0,0,.64,1.94l2.62,2a1.79,1.79,0,0,0,2.82-1l.25-1.05a1.79,1.79,0,0,0-1.2-2.13l-2.86-.91A1.8,1.8,0,0,0,737,255.71Z"/><path class="cls-27" d="M780.18,193.53h0a1.78,1.78,0,0,0,2-.4l2.27-2.36a1.79,1.79,0,0,0-.67-2.93l-1-.38a1.81,1.81,0,0,0-2.26.94l-1.25,2.74A1.79,1.79,0,0,0,780.18,193.53Z"/><path class="cls-27" d="M728.56,252.49l.29,5.57a4.1,4.1,0,0,1-5.12,4.2l-4.21-1.09a4.09,4.09,0,0,1-3-4.81l.93-4.51a4.11,4.11,0,0,1,4-3.27l3,0A4.11,4.11,0,0,1,728.56,252.49Z"/><path class="cls-27" d="M21,820.15V659.52H62.79v2.62a2.14,2.14,0,0,0,.52,1.39l3.71,4.3a2.15,2.15,0,0,1,0,2.85l-1.69,1.82a2.07,2.07,0,0,1-1.18.65l-4.94.91a2.14,2.14,0,0,0-1.7,2.54l.92,4.51a2.14,2.14,0,0,0,2.1,1.71h4.07a2.12,2.12,0,0,1,1.75.92l3.34,4.79a2.12,2.12,0,0,0,1.75.92h9.08a2.14,2.14,0,0,1,2.13,1.89l.78,6.82a2.15,2.15,0,0,1-1,2.08l-5.51,3.28a2.14,2.14,0,0,0-1,1.84v1.43a2.13,2.13,0,0,0,1.63,2.07l6.81,1.64a2.14,2.14,0,0,0,2-.56l7.83-7.7a2.14,2.14,0,0,0,.64-1.67l-.67-9.78a2.15,2.15,0,0,1,1.76-2.25l7.18-1.26a2.15,2.15,0,0,1,2.51,2.07l.22,11.36a2.15,2.15,0,0,1-.55,1.47l-9.39,10.46a3.83,3.83,0,0,1-.29.28L86.18,720a2.17,2.17,0,0,1-1.73.39l-12.76-2.64a2.16,2.16,0,0,1-.49-.16l-5.1-2.44a2.14,2.14,0,0,0-2.35.34l-6.3,5.69a2.15,2.15,0,0,0-.17,3l5,5.59a2.11,2.11,0,0,1,.54,1.41v15.5a2.1,2.1,0,0,0,.72,1.59l5.7,5.07a2.13,2.13,0,0,1,.38,2.75l-3.36,5.25a2.07,2.07,0,0,1-.7.68L60,765.35a2.13,2.13,0,0,1-2.36-.1l-.66-.49a2.14,2.14,0,0,0-3.33,1.18l-2.34,8.92A2.14,2.14,0,0,0,52,777l3.86,3.25a2.15,2.15,0,0,0,2.07.39l9.51-3.26a2.53,2.53,0,0,1,.6-.11l11.07-.5a2.14,2.14,0,0,1,2,1.22l3.45,7.28a2.13,2.13,0,0,1-.9,2.78l-4.36,2.42a2.11,2.11,0,0,1-1.37.24l-9.49-1.5a2.23,2.23,0,0,0-1.39.25l-4.6,2.61a2.14,2.14,0,0,0-1,2.32l1.45,3.64a2.16,2.16,0,0,0,1.2,1.48,2.13,2.13,0,0,1,.61,3.45l-.66.67a2.09,2.09,0,0,0-.63,1.51v15Z"/><path class="cls-27" d="M295.85,929.79l4.13-13.7a5.29,5.29,0,0,0-1.77-5.68l-4.53-3.6A5.31,5.31,0,0,0,286,908h0a5.3,5.3,0,0,1-8.46.5l-1.21-1.43a5.33,5.33,0,0,1-1.16-4.46l1.45-7.27a5.3,5.3,0,0,0-8.39-5.26l-9.64,7.26a5.31,5.31,0,0,0-1.87,5.82l5.76,18.29a5.35,5.35,0,0,0,.62,1.3l11.1,17a5.31,5.31,0,0,0,7.51,1.43l12.18-8.66A5.27,5.27,0,0,0,295.85,929.79Z"/><path class="cls-27" d="M280.44,880.14l-2-5.87a2.56,2.56,0,0,1,1.21-3.08l3.07-1.67a2.57,2.57,0,0,1,3.61,1.33l1.45,3.72a2.57,2.57,0,0,1-.25,2.36L285,880.74A2.57,2.57,0,0,1,280.44,880.14Z"/><path class="cls-27" d="M373.21,908.52l-6.12-1a2.58,2.58,0,0,1-2.15-2.51l0-3.5a2.56,2.56,0,0,1,2.86-2.57l4,.46a2.59,2.59,0,0,1,2,1.33l2.18,4A2.57,2.57,0,0,1,373.21,908.52Z"/><path class="cls-27" d="M190.05,711h0a6.4,6.4,0,0,0-9.34-2.94h0a6.4,6.4,0,0,0,3,11.79h0A6.4,6.4,0,0,0,190.05,711Z"/><path class="cls-27" d="M173,718.4h0a3.84,3.84,0,0,0-5.61-1.77h0a3.85,3.85,0,0,0,1.78,7.09h0A3.85,3.85,0,0,0,173,718.4Z"/><path class="cls-27" d="M244.23,825.81l16,13.54a6.38,6.38,0,0,1,2.09,6.31l-1.78,7.65a6.36,6.36,0,0,1-5.18,4.85l-3.6.59a6.38,6.38,0,0,1-7.29-5.12L243.29,847a6.36,6.36,0,0,0-6.23-5.2h0a6.37,6.37,0,0,1-5.35-9.8l3-4.76A6.36,6.36,0,0,1,244.23,825.81Z"/><path class="cls-27" d="M257.36,830.09l1.36,1a1.49,1.49,0,0,0,2.36-.93l.32-1.84a1.49,1.49,0,0,0-2.12-1.59l-1.68.82A1.48,1.48,0,0,0,257.36,830.09Z"/><path class="cls-27" d="M392.5,852.41l1.69-.15a1.49,1.49,0,0,0,1.12-2.28l-1-1.58a1.48,1.48,0,0,0-2.63.24l-.7,1.74A1.49,1.49,0,0,0,392.5,852.41Z"/><path class="cls-27" d="M377.74,848.48l5.51,3a5.46,5.46,0,0,1,2.56,3l.15.39a5.5,5.5,0,0,0,6.31,3.51l3.06-.65a5.51,5.51,0,0,1,6.19,3.2h0a5.51,5.51,0,0,1-2.79,7.2l-2.22,1a5.62,5.62,0,0,1-1.6.45l-9.91,1.2a5.52,5.52,0,0,1-5.64-3.12l-1.58-3.36a5.49,5.49,0,0,0-4.08-3.08l-.61-.11a5.5,5.5,0,0,1-4-7.85l1.13-2.31A5.51,5.51,0,0,1,377.74,848.48Z"/><path class="cls-27" d="M371.32,866.14h0a1.85,1.85,0,0,1,2.46,1.41h0a1.86,1.86,0,0,1-3.18,1.61h0A1.86,1.86,0,0,1,371.32,866.14Z"/><path class="cls-27" d="M372.92,635.57,363.3,625a5.3,5.3,0,0,1-.84-5.89l2.55-5.19a5.29,5.29,0,0,1,7.49-2.22h0a5.3,5.3,0,0,0,7.85-3.18l.48-1.82a5.33,5.33,0,0,0-.87-4.52l-4.43-5.94a5.3,5.3,0,0,1,5.31-8.36l11.83,2.41a5.31,5.31,0,0,1,4.19,4.46l2.65,19a5.34,5.34,0,0,1,0,1.44l-2.71,20.16a5.29,5.29,0,0,1-6.16,4.51l-14.72-2.58A5.29,5.29,0,0,1,372.92,635.57Z"/><path class="cls-27" d="M345.74,591.19l5.36-3.11a2.57,2.57,0,0,0,1.12-3.11L351,581.69a2.57,2.57,0,0,0-3.59-1.39l-3.55,1.85a2.56,2.56,0,0,0-1.36,1.94l-.61,4.54A2.58,2.58,0,0,0,345.74,591.19Z"/><path class="cls-27" d="M279.63,631.25l5.09-3.54a2.56,2.56,0,0,0,.86-3.19l-1.47-3.16a2.57,2.57,0,0,0-3.69-1.1L277,622.39a2.56,2.56,0,0,0-1.2,2L275.6,629A2.57,2.57,0,0,0,279.63,631.25Z"/><path class="cls-27" d="M381.81,523.73l-14.7,15a6.36,6.36,0,0,0-1.5,6.48l2.48,7.45a6.39,6.39,0,0,0,5.62,4.35l3.64.24a6.36,6.36,0,0,0,6.77-5.78l.61-6.7a6.38,6.38,0,0,1,5.72-5.76h0a6.38,6.38,0,0,0,4.41-10.26l-3.48-4.45A6.37,6.37,0,0,0,381.81,523.73Z"/><path class="cls-27" d="M369.14,529.22l-1.25,1.15a1.49,1.49,0,0,1-2.44-.71l-.49-1.8a1.49,1.49,0,0,1,2-1.79l1.75.66A1.49,1.49,0,0,1,369.14,529.22Z"/><path class="cls-27" d="M238.09,588.88l-1.59.58a1.48,1.48,0,0,1-2-1.57l.22-1.85a1.49,1.49,0,0,1,2.49-.92l1.37,1.27A1.49,1.49,0,0,1,238.09,588.88Z"/><path class="cls-27" d="M249.73,579l-3.7,5a5.5,5.5,0,0,0-1,3.78l0,.43a5.49,5.49,0,0,1-4.19,5.88l-3,.72a5.5,5.5,0,0,0-4.21,5.55h0a5.5,5.5,0,0,0,5.61,5.31l2.43-.05a5.39,5.39,0,0,0,1.64-.29l9.47-3.18a5.5,5.5,0,0,0,3.74-5.24v-3.71a5.49,5.49,0,0,1,2.35-4.53l.51-.36a5.5,5.5,0,0,0,.26-8.83l-2-1.59A5.51,5.51,0,0,0,249.73,579Z"/><path class="cls-27" d="M263.12,592.17h0a1.85,1.85,0,0,0-1.62,2.33h0a1.86,1.86,0,0,0,3.56.09h0A1.85,1.85,0,0,0,263.12,592.17Z"/></g><ellipse class="cls-28" cx="291.04" cy="224.17" rx="8.96" ry="10.3"/><ellipse class="cls-28" cx="352.43" cy="224.17" rx="8.96" ry="10.3"/><path class="cls-13" d="M321.62,3.39V156H369a34.46,34.46,0,0,1,34,28.64.17.17,0,0,0,0,.07c.09.45.15.9.21,1.35H404l-6.93,64.32-.14,1.33a6.09,6.09,0,0,0,6,6.73h3.12a19.3,19.3,0,0,0,15.62-8c6.26-8.66,14.95-17.48,18.8-26.29a20.22,20.22,0,0,1,21.69-11.6,6,6,0,0,1,1.84.63l1.39.74a5.58,5.58,0,0,1,1.64,1.25c4.27,4.75,9.95,21.42,18.73,32.95s53,33.69,69.35,41.06l29,13.47.43.19,21,7.87a6,6,0,0,0,1,.28l25.16,4.87.45.07,4.11.49a6.2,6.2,0,0,0,6.93-6.16V9.6A6.21,6.21,0,0,0,637,3.39Z"/><path class="cls-13" d="M321.62,3.39V156H274.27a34.46,34.46,0,0,0-34,28.64.17.17,0,0,1,0,.07c-.09.45-.15.9-.21,1.35h-.81l6.93,64.32.14,1.33a6.09,6.09,0,0,1-6.05,6.73h-3.12a19.3,19.3,0,0,1-15.62-8c-6.26-8.66-14.95-17.48-18.8-26.29a20.22,20.22,0,0,0-21.69-11.6,6,6,0,0,0-1.84.63l-1.39.74a5.58,5.58,0,0,0-1.64,1.25c-4.27,4.75-10,21.42-18.73,32.95s-53,33.69-69.35,41.06l-29,13.47-.43.19-21,7.87a6,6,0,0,1-1,.28l-25.16,4.87L11,316l-4.11.49A6.2,6.2,0,0,1,0,310.28V9.6A6.21,6.21,0,0,1,6.2,3.39Z"/><path class="cls-28" d="M403,184.73c0-.35,0-.72-.1-1.09l.09,1A.17.17,0,0,0,403,184.73Z"/><path class="cls-29" d="M0,6.2V306.88A6.2,6.2,0,0,0,6.93,313l4.11-.48.45-.07,25.16-4.87a7.08,7.08,0,0,0,1-.28l21-7.88a3.25,3.25,0,0,0,.43-.18l29-13.47c16.39-7.37,60.58-29.56,69.35-41.06s14.46-28.2,18.73-33a5.73,5.73,0,0,1,1.64-1.24l1.39-.74a5.74,5.74,0,0,1,1.84-.63,20.21,20.21,0,0,1,21.69,11.6c3.85,8.81,12.54,17.63,18.8,26.29a19.3,19.3,0,0,0,15.62,8h3.12a6.09,6.09,0,0,0,5.91-4.67,5.94,5.94,0,0,0,.14-2.07l-6.2-57.54c0-.09,0-.19,0-.29h-.22c-.18-6.55.26-33,18.33-39.12,2.33-.44,4.83-.86,7.47-1.25h.65c7.61,0,9.75,2.57,11.42,5.78s2.92,7.26,9,9.89c31.62,13.65,59.81-9.86,88.8-10.43h1.31c15.13,0,21.59,9.87,24.3,19.36.21.7.39,1.39.55,2.08.11.49.21,1,.31,1.44s.13.63.18.94c.15.79.27,1.56.37,2.3.05.38.1.74.14,1.1s.07.62.1.92a.76.76,0,0,1,0,.15c.05.37.08.74.1,1.09a55.3,55.3,0,0,1,.15,6.06l-6.2,57.54a5.94,5.94,0,0,0,.14,2.07,6.09,6.09,0,0,0,5.91,4.67h3.12a19.3,19.3,0,0,0,15.62-8c6.26-8.66,14.95-17.48,18.8-26.29a20.21,20.21,0,0,1,21.69-11.6,5.74,5.74,0,0,1,1.84.63l1.39.74a5.73,5.73,0,0,1,1.64,1.24c4.27,4.76,9.95,21.43,18.73,33s53,33.69,69.35,41.06l29,13.47a3.25,3.25,0,0,0,.43.18l21,7.88a7.08,7.08,0,0,0,1,.28l25.16,4.87.45.07,4.11.48a6.2,6.2,0,0,0,6.93-6.16V6.2A6.21,6.21,0,0,0,637,0H6.2A6.21,6.21,0,0,0,0,6.2Z"/><path class="cls-30" d="M364.31,212.23a5,5,0,0,0-.95-9.84c-7.08-.7-13.7-1-22.92,2.24a5,5,0,0,0,3.35,9.5c7.87-2.78,13.31-2.24,18.58-1.72A5,5,0,0,0,364.31,212.23Z"/><path class="cls-30" d="M277.13,212.23a5,5,0,0,1,.94-9.84c7.09-.7,13.7-1,22.92,2.24a5,5,0,1,1-3.34,9.5c-7.88-2.78-13.32-2.24-18.59-1.72A5,5,0,0,1,277.13,212.23Z"/><path class="cls-13" d="M322.7,267.77a7.19,7.19,0,0,0-4.74,2,3.08,3.08,0,0,0,2.25,5.28l5.42-.16a3.08,3.08,0,0,0,1.92-5.41A7.16,7.16,0,0,0,322.7,267.77Z"/><path class="cls-13" d="M327.68,240.93a3.82,3.82,0,0,1,2.5,6.72,13.77,13.77,0,0,1-17.36,0,3.82,3.82,0,0,1,2.5-6.72Z"/><path class="cls-31" d="M309.72,262.07s13.36-5,26.2-.52"/><rect class="cls-32" x="992" width="32" height="32"/></g></g></g></svg>