<svg xmlns="http://www.w3.org/2000/svg" xmlns:xlink="http://www.w3.org/1999/xlink" viewBox="0 0 1024 1024"><defs><style>.cls-1{isolation:isolate;}.cls-2{fill:#fff;}.cls-3{fill:#7a8d9d;}.cls-4{fill:#abbac3;}.cls-19,.cls-5{opacity:0.15;}.cls-11,.cls-12,.cls-13,.cls-18,.cls-19,.cls-5{mix-blend-mode:overlay;}.cls-5{fill:url(#linear-gradient);}.cls-6{fill:red;}.cls-7{fill:#f6a563;}.cls-8{fill:#002539;}.cls-9{fill:#ccdde7;}.cls-10{fill:#998675;}.cls-11,.cls-12,.cls-13,.cls-26{opacity:0.25;}.cls-12{fill:url(#linear-gradient-2);}.cls-13{fill:url(#linear-gradient-3);}.cls-14{fill:url(#linear-gradient-4);}.cls-15{fill:#abbfcf;}.cls-16{fill:url(#radial-gradient);}.cls-17{opacity:0.9;}.cls-18{fill:url(#linear-gradient-5);}.cls-20{opacity:0.5;}.cls-21{fill:lime;}.cls-22{fill:#220f0f;}.cls-23{fill:blue;}.cls-24{opacity:0.6;mix-blend-mode:multiply;}.cls-25{fill:#143441;}.cls-26{mix-blend-mode:screen;}</style><linearGradient id="linear-gradient" x1="321.68" y1="286" x2="321.68" y2="431.12" gradientUnits="userSpaceOnUse"><stop offset="0"/><stop offset="1" stop-opacity="0"/></linearGradient><linearGradient id="linear-gradient-2" x1="657.77" y1="835.05" x2="657.77" y2="786.3" gradientUnits="userSpaceOnUse"><stop offset="0" stop-opacity="0"/><stop offset="1"/></linearGradient><linearGradient id="linear-gradient-3" x1="794.72" y1="835.05" x2="794.72" y2="786.3" xlink:href="#linear-gradient-2"/><linearGradient id="linear-gradient-4" x1="258.3" y1="987.83" x2="316.29" y2="987.64" xlink:href="#linear-gradient-2"/><radialGradient id="radial-gradient" cx="321.11" cy="871.96" r="84.19" gradientTransform="translate(0 316.77) scale(1 0.64)" gradientUnits="userSpaceOnUse"><stop offset="0" stop-color="#badde2"/><stop offset="0.17" stop-color="#badde2" stop-opacity="0.99"/><stop offset="0.31" stop-color="#badde2" stop-opacity="0.94"/><stop offset="0.43" stop-color="#badde2" stop-opacity="0.87"/><stop offset="0.55" stop-color="#badde2" stop-opacity="0.76"/><stop offset="0.67" stop-color="#badde2" stop-opacity="0.62"/><stop offset="0.78" stop-color="#badde2" stop-opacity="0.45"/><stop offset="0.88" stop-color="#badde2" stop-opacity="0.25"/><stop offset="0.99" stop-color="#badde2" stop-opacity="0.03"/><stop offset="1" stop-color="#badde2" stop-opacity="0"/></radialGradient><linearGradient id="linear-gradient-5" x1="320.89" y1="903.7" x2="320.89" y2="869.42" xlink:href="#linear-gradient-2"/></defs><title>zombieC</title><g class="cls-1"><g id="Layer_2" data-name="Layer 2"><g id="Layer_1-2" data-name="Layer 1"><rect class="cls-2" width="1024" height="1024"/><rect class="cls-3" x="624" y="524" width="400" height="240"/><rect class="cls-4" width="643" height="490"/><rect class="cls-4" x="824" y="134" width="200" height="390"/><path class="cls-5" d="M366,299h0a89.81,89.81,0,0,0-19.13,2.07h0a89.33,89.33,0,0,1-19.14,2.07H315.59a89.26,89.26,0,0,1-19.14-2.07h0A89.81,89.81,0,0,0,277.32,299h0a43.74,43.74,0,0,0-33,15c-6.51,7.48-12.32,16.72-11.37,25.21l15.3,137,71.88,5.58,1.52-2.82,1.52,2.82,71.87-5.58,15.31-137c.95-8.49-4.86-17.73-11.38-25.21A43.71,43.71,0,0,0,366,299Z"/><path class="cls-3" d="M442.55,216.37h8.29a18.41,18.41,0,0,1,18.41,18.41v1.43a18.41,18.41,0,0,1-18.41,18.41h-8.29a0,0,0,0,1,0,0V216.37A0,0,0,0,1,442.55,216.37Z"/><path class="cls-4" d="M437.85,216.37h8.29a18.41,18.41,0,0,1,18.41,18.41v1.43a18.41,18.41,0,0,1-18.41,18.41h-8.29a0,0,0,0,1,0,0V216.37A0,0,0,0,1,437.85,216.37Z"/><ellipse class="cls-3" cx="451.21" cy="235.5" rx="7.93" ry="4.4" transform="translate(132.36 632.21) rotate(-78.77)"/><path class="cls-3" d="M173.56,216.37h8.29a18.41,18.41,0,0,1,18.41,18.41v1.43a18.41,18.41,0,0,1-18.41,18.41h-8.29a0,0,0,0,1,0,0V216.37A0,0,0,0,1,173.56,216.37Z" transform="translate(373.83 471) rotate(-180)"/><path class="cls-4" d="M178.26,216.37h8.29A18.41,18.41,0,0,1,205,234.78v1.43a18.41,18.41,0,0,1-18.41,18.41h-8.29a0,0,0,0,1,0,0V216.37A0,0,0,0,1,178.26,216.37Z" transform="translate(383.22 471) rotate(-180)"/><ellipse class="cls-3" cx="191.61" cy="235.5" rx="4.4" ry="7.93" transform="translate(-42.19 41.82) rotate(-11.23)"/><polygon class="cls-4" points="579.88 654.47 544.43 654.47 491.56 654.47 460 654.47 460 654.47 445.83 654.47 428.62 681.05 422.17 725.5 423.38 763.65 432.45 812.23 457.05 819.12 460 823.21 460 823.21 491.56 823.21 544.43 823.21 579.88 823.21 615.98 823.21 615.98 654.47 579.88 654.47"/><polygon class="cls-4" points="194.91 654.47 180.74 654.47 180.74 654.47 149.18 654.47 96.31 654.47 60.86 654.47 24.76 654.47 24.76 823.21 60.86 823.21 96.31 823.21 149.18 823.21 180.74 823.21 180.74 823.21 183.69 819.12 208.29 812.23 217.36 763.65 218.57 725.5 212.12 681.05 194.91 654.47"/><rect class="cls-4" x="624" y="864.49" width="400" height="159.51"/><rect class="cls-6" x="992" width="32" height="32"/><ellipse class="cls-4" cx="320.36" cy="746.08" rx="73.24" ry="132.26"/><rect class="cls-7" x="643" width="381" height="134"/><rect class="cls-8" x="643" y="134" width="181" height="390"/><polygon class="cls-2" points="685.44 439.39 707.95 424.66 745.85 424.66 766.21 445.84 763.57 471.33 735.92 484.58 701.16 478.78 685.44 439.39"/><polygon class="cls-2" points="685.44 264.47 707.95 249.74 745.85 249.74 766.21 270.93 763.57 296.42 735.92 309.66 701.16 303.87 685.44 264.47"/><rect class="cls-2" x="713.32" y="395.74" width="26.58" height="5.41" rx="2.7" ry="2.7"/><rect class="cls-2" x="713.32" y="386.11" width="26.58" height="5.41" rx="2.7" ry="2.7"/><rect class="cls-2" x="713.32" y="405.83" width="26.58" height="5.41" rx="2.7" ry="2.7"/><rect class="cls-2" x="713.32" y="221.15" width="26.58" height="5.41" rx="2.7" ry="2.7"/><rect class="cls-2" x="713.32" y="210.84" width="26.58" height="5.41" rx="2.7" ry="2.7"/><rect class="cls-2" x="713.32" y="231.25" width="26.58" height="5.41" rx="2.7" ry="2.7"/><path class="cls-9" d="M806,315.06l-8.41,15.88-.11,13.64L779,393.74l-11.25,31.05L756,456.55a25.15,25.15,0,0,1-7.8,10.82h0a25.17,25.17,0,0,1-11.82,5.27l-6,1a25.15,25.15,0,0,1-9.7-.34l-4.78-1.11a25.16,25.16,0,0,1-12.13-6.73l-.59-.59a25.08,25.08,0,0,1-5.47-8.21L689.55,437l-11.5-28.5-4-13.8-6-26.11L666.6,353l-.05-26.66h-20.5V483.78l57.24,18H797l13-48,10.5-98.48V319.61Z"/><path class="cls-9" d="M806,139.59l-8.17,15.88-.12,13.64L779,218.27l-11.25,31L756,281.09a25.15,25.15,0,0,1-7.8,10.82h0a25.15,25.15,0,0,1-11.82,5.26l-6,1a25.14,25.14,0,0,1-9.7-.33l-4.78-1.11A25.32,25.32,0,0,1,703.69,290l-.59-.59a25,25,0,0,1-5.47-8.22l-8.08-19.59-11.5-28.5-4-13.8-6-26.1L666.6,177.5l-.05-26.65h-20.5V308.31l57.24,18H797l13-48,10.5-98.49V144.14Z"/><path class="cls-2" d="M692.28,330.68l3.64,22.77a23.6,23.6,0,0,0,5.46,11.72l8.31,9.59a23.6,23.6,0,0,0,17.82,8.13h0a23.59,23.59,0,0,0,14.58-5.05l3.43-2.7a23.55,23.55,0,0,0,5.29-5.84l4.8-7.53a23.4,23.4,0,0,0,2.21-4.42L768.42,329H692.28Z"/><path class="cls-2" d="M692.28,154.72l3.64,22.77a23.6,23.6,0,0,0,5.46,11.72l8.31,9.58a23.58,23.58,0,0,0,17.82,8.14h0a23.59,23.59,0,0,0,14.58-5.05l3.43-2.71a23.37,23.37,0,0,0,5.29-5.84l4.8-7.52a23.79,23.79,0,0,0,2.21-4.43L768.42,153H692.28Z"/><rect class="cls-10" x="624" y="764" width="400" height="109.12"/><rect class="cls-2" x="631.59" y="968.54" width="383.62" height="48.93"/><rect class="cls-9" x="631.59" y="968.54" width="383.62" height="6.96"/><rect class="cls-11" x="624" y="864.42" width="400" height="8.7"/><rect class="cls-11" x="624" y="786.3" width="400" height="16.15"/><path class="cls-12" d="M682.15,786.3a48.75,48.75,0,0,1-48.75,48.75V786.3Z"/><path class="cls-13" d="M770.35,786.3a48.75,48.75,0,0,0,48.75,48.75V786.3Z"/><path class="cls-8" d="M180.74,484.58V1024H460V484.58Zm140.37,346.7c-25.08,0-45.41-54.27-45.41-85.91S296,717,321.11,717s45.4-3.3,45.4,28.33S346.18,831.28,321.11,831.28Z"/><rect x="172.9" y="654.47" width="7.84" height="188.74" transform="translate(353.64 1497.67) rotate(-180)"/><rect x="460" y="654.47" width="7.84" height="188.74" transform="translate(927.84 1497.67) rotate(-180)"/><polygon class="cls-14" points="291.02 968.77 268.5 984.65 293.85 1006.8 246.63 1006.8 252.39 968.77 291.02 968.77"/><path class="cls-15" d="M332.54,975.25H311.23a6.63,6.63,0,0,0-6.63,6.63v11.41a6.63,6.63,0,0,0,6.63,6.63h21.31a6.63,6.63,0,0,0,6.63-6.63V981.88A6.63,6.63,0,0,0,332.54,975.25Zm3.13,17.52a3.42,3.42,0,0,1-3.42,3.43H311.52a3.43,3.43,0,0,1-3.43-3.43V982.39a3.43,3.43,0,0,1,3.43-3.42h20.73a3.42,3.42,0,0,1,3.42,3.42Z"/><rect class="cls-15" x="314.68" y="977.86" width="4.63" height="19.44"/><path class="cls-15" d="M317,977.86h0a2.31,2.31,0,0,1,2.31,2.31V997.3a0,0,0,0,1,0,0h-4.63a0,0,0,0,1,0,0V980.18a2.31,2.31,0,0,1,2.31-2.31Z" transform="translate(1304.57 670.59) rotate(90)"/><rect class="cls-8" x="180.74" y="968.37" width="279.26" height="38.43"/><rect class="cls-8" x="180.74" y="494.89" width="279.26" height="38.43"/><path class="cls-16" d="M431.62,852.78v9.35a11.8,11.8,0,0,1-2.23,6.85c-26.89,37.44-65.45,60.91-108.29,60.91S239.71,906.42,212.82,869a11.8,11.8,0,0,1-2.23-6.85V853a11.62,11.62,0,0,1,17.2-10.17l.32.17a35.26,35.26,0,0,1,16.46,18.77A42.88,42.88,0,0,0,299,887.24a67.56,67.56,0,0,1,44.82,0,42.86,42.86,0,0,0,54.38-25.43,35.44,35.44,0,0,1,16.22-19l.18-.1A11.5,11.5,0,0,1,431.62,852.78Z"/><rect class="cls-11" x="180.74" y="997.3" width="279.26" height="13.26"/><rect class="cls-11" x="180.74" y="494.16" width="279.26" height="13.58"/><rect class="cls-8" x="205.31" y="834.28" width="229.44" height="116.08"/><g class="cls-17"><path class="cls-2" d="M357.72,884.13C356,867,339.51,854.58,320.87,856.44s-32.35,17.29-30.63,34.45c1.1,11,7.65,14.07,17.11,14.38l.51,5.09a5.07,5.07,0,0,0,5.55,4.54h0a5.06,5.06,0,0,0,4.54-5.55,5.07,5.07,0,1,0,10.09-1,5.07,5.07,0,0,0,5.55,4.54h0a5.07,5.07,0,0,0,4.54-5.55l-.46-4.59C350.31,901,359.05,897.38,357.72,884.13Zm-49.89,14.75c-4.74.48-9.77-2.45-10.25-7.19s3.79-9.51,8.53-10,8.17,3.52,8.65,8.26S312.57,898.41,307.83,898.88Zm14.86,3-1.55-.45a1.68,1.68,0,0,0-1.28.13l-1.43.75a1.72,1.72,0,0,1-2.39-2.19l2.26-5.38a1.72,1.72,0,0,1,3-.3l3.29,4.82A1.72,1.72,0,0,1,322.69,901.83Zm12.09-6.26c-6,.6-9.69-3.76-10.28-9.72s2.15-11.29,8.11-11.89,12.89,3.76,13.49,9.72S340.74,895,334.78,895.57Z"/></g><path class="cls-18" d="M377.33,885.09c-10.89,12.3-32,20.64-56.22,20.64-24.58,0-45.93-8.57-56.67-21.16A42.95,42.95,0,0,0,299,887.24a67.56,67.56,0,0,1,44.82,0,42.92,42.92,0,0,0,33.53-2.15Z"/><g class="cls-19"><rect x="164.96" y="654.47" width="7.84" height="188.74" transform="translate(337.77 1497.67) rotate(-180)"/><rect x="467.85" y="654.47" width="7.84" height="188.74" transform="translate(943.55 1497.67) rotate(-180)"/></g><g class="cls-11"><path class="cls-20" d="M364.05,767.18c-6.13,29.92-23,64.1-42.94,64.1s-36.82-34.18-42.95-64.1c7.67,27.58,24,55.75,42.95,55.75S356.38,794.76,364.05,767.18Z"/></g><rect class="cls-21" x="992" width="32" height="32"/><path class="cls-3" d="M373.3,220c-2.66-8.79-10.22-14.93-18.4-14.93h0a16.49,16.49,0,0,0-4.83.73,17.23,17.23,0,0,0-10.69,9.94,22,22,0,0,0-.7,15c2.65,8.79,10.22,14.93,18.39,14.93a16.44,16.44,0,0,0,4.83-.73C371.45,242,376.56,230.81,373.3,220Z"/><path class="cls-3" d="M304.25,215.75a17.22,17.22,0,0,0-10.68-9.94,16.49,16.49,0,0,0-4.83-.73c-8.16,0-15.72,6.14-18.37,14.93-3.26,10.8,1.85,22,11.38,25a16.44,16.44,0,0,0,4.83.73c8.16,0,15.72-6.14,18.37-14.93A22.08,22.08,0,0,0,304.25,215.75Z"/><ellipse class="cls-2" cx="354.19" cy="217.15" rx="12.06" ry="14.06" transform="translate(-48.09 113.35) rotate(-17.04)"/><ellipse class="cls-2" cx="289.46" cy="217.15" rx="14.06" ry="12.06" transform="translate(-2.99 430.25) rotate(-72.96)"/><ellipse class="cls-4" cx="321.82" cy="194.83" rx="55.26" ry="19.97"/><g class="cls-19"><path d="M321,5V151.59c-46.33,0-83.91,36.38-84.07,44.26v.05L235.3,213c-1.2,12.75-16.54,22.95-26.23,15.52s-30.16-18.38-57.22,27.74S0,318.87,0,318.87V5Z"/><path d="M321,5V151.59c46.33,0,83.91,36.38,84.07,44.26v.05l1.61,17.1c1.2,12.75,16.54,22.95,26.23,15.52s30.16-18.38,57.22,27.74S642,318.87,642,318.87V5Z"/></g><path class="cls-22" d="M321,0H0V313.87s124.79-16.5,151.85-62.61,47.53-35.17,57.22-27.74,25-2.77,26.23-15.52l1.61-17.1v-.05c.16-7.88,37.74-44.26,84.07-44.26s83.91,36.38,84.07,44.26v.05l1.61,17.1c1.2,12.75,16.54,22.95,26.23,15.52s30.16-18.38,57.22,27.74S642,313.87,642,313.87V0Z"/><path class="cls-22" d="M343.24,210.53a5.2,5.2,0,0,0,1.5-.23,51.85,51.85,0,0,1,15.06-2,5,5,0,0,0,0-10,62.22,62.22,0,0,0-18.06,2.45,5,5,0,0,0,1.5,9.77Z"/><path class="cls-22" d="M300.41,210.53a5,5,0,0,0,1.5-9.77,62.27,62.27,0,0,0-18.06-2.45,5,5,0,0,0,0,10,51.78,51.78,0,0,1,15,2A5.27,5.27,0,0,0,300.41,210.53Z"/><g class="cls-19"><path d="M331.17,245.9c-1.22,4-4.95,5.36-9.36,5.36v-9.14l7.76,1.24A2,2,0,0,1,331.17,245.9Z"/><path d="M312.48,245.9c1.22,4,4.95,5.36,9.35,5.36v-9.14l-7.75,1.24A2,2,0,0,0,312.48,245.9Z"/></g><rect class="cls-23" x="992" width="32" height="32"/><g class="cls-11"><path d="M318.59,264.14a13,13,0,0,1,.72-1.49,12.85,12.85,0,0,1,.84-1.28,15.2,15.2,0,0,1,2.05-2.19,16.47,16.47,0,0,1,5.15-3,18.42,18.42,0,0,1,2.93-.81,16.55,16.55,0,0,1,3.06-.24,12.47,12.47,0,0,1,5.92,1.52,2.72,2.72,0,0,1,1.05,3.7,2.67,2.67,0,0,1-1.12,1.09l-.38.19c-1.58.83-2.95,1.26-4.27,1.84-.66.22-1.3.54-2,.74s-1.29.48-1.93.76c-1.28.5-2.6,1-4,1.46-.69.25-1.41.48-2.17.7-.37.11-.75.22-1.15.32a6.64,6.64,0,0,1-1.17.22h-1.28a2.51,2.51,0,0,1-2.5-2.53A2.57,2.57,0,0,1,318.59,264.14Z"/></g><g class="cls-24"><path class="cls-25" d="M1015.19,995l-8.75-8.23a2.13,2.13,0,0,0-2.81-.1l-2.83,2.29a2.13,2.13,0,0,1-2.94-.25l-8.1-9.19a2.14,2.14,0,0,0-2.56-.5l-6.89,3.45a2.13,2.13,0,0,1-2.52-.46l-9.18-10a2.14,2.14,0,0,1-.36-2.36l4-8.56a2.15,2.15,0,0,0-.18-2.15l-6.22-8.81a2.13,2.13,0,0,0-3.47,0l-6.55,9a2.14,2.14,0,0,0-.32,1.88l2.92,9.59a2.13,2.13,0,0,1-.08,1.47l-4.21,9.7a2.08,2.08,0,0,1-.22.38l-8.45,11.93a2.12,2.12,0,0,1-1.75.9H900a2.11,2.11,0,0,1-1.26-.41l-5.53-4a2.14,2.14,0,0,0-2.69.14l-3.43,3.1a2.13,2.13,0,0,1-2.75.1l-4.45-3.5a2.13,2.13,0,0,1,0-3.39l6.63-4.92a2.13,2.13,0,0,0,.44-3l-3.62-4.86a2.14,2.14,0,0,0-3.11-.34l-3.39,2.92a2.14,2.14,0,0,1-2.77,0l-5.41-4.53a2.12,2.12,0,0,0-2.37-.25l-5.54,3a2.15,2.15,0,0,0-.91,2.84l2.76,5.51a2.15,2.15,0,0,1-.9,2.84l-3.62,2a2.14,2.14,0,0,1-3-1l-4.1-9.41a2.12,2.12,0,0,1,.26-2.14l5.46-7.24a2.14,2.14,0,0,0-.82-3.24l-9.35-4.21a2.14,2.14,0,0,0-2.81,1l-3.22,6.81a2.26,2.26,0,0,0-.19.72l-1.54,16.72a2.08,2.08,0,0,0,0,.66L840,991.7a2.14,2.14,0,0,1-1.35,2.48l-1.81.66a2.06,2.06,0,0,1-.74.13H822.6a2.13,2.13,0,0,1-1.4-.52l-4.29-3.71a2.14,2.14,0,0,0-2.85,0l-1.82,1.68a2.14,2.14,0,0,0-.65,1.18l-.92,5a2.13,2.13,0,0,1-2.53,1.7l-4.51-.93a2.13,2.13,0,0,1-1.71-2.09v-4.07a2.14,2.14,0,0,0-.92-1.76l-4.79-3.33a2.14,2.14,0,0,1-.92-1.76v-9.08a2.13,2.13,0,0,0-1.89-2.12l-6.82-.78a2.13,2.13,0,0,0-2.08,1l-3.29,5.51a2.14,2.14,0,0,1-1.83,1H778a2.14,2.14,0,0,1-2.07-1.64l-1.64-6.81a2.14,2.14,0,0,1,.55-2l7.71-7.84a2.14,2.14,0,0,1,1.67-.63l9.78.67A2.14,2.14,0,0,0,796.2,962l1.26-7.18a2.14,2.14,0,0,0-2.07-2.5L784,952.05a2.14,2.14,0,0,0-1.47.54L772.1,962a2.68,2.68,0,0,0-.28.3l-7.07,9.31a2.16,2.16,0,0,0-.39,1.72L767,986.07a2,2,0,0,0,.17.49l2.44,5.1a2.15,2.15,0,0,1-.34,2.36l-5.69,6.3a2.14,2.14,0,0,1-3,.16l-5.59-5a2.11,2.11,0,0,0-1.42-.54H708.06a2.17,2.17,0,0,1-1.6-.71l-5.06-5.71a2.15,2.15,0,0,0-2.75-.38l-5.25,3.36a2.16,2.16,0,0,0-.68.7l-3.34,5.58a2.14,2.14,0,0,0,.11,2.35l.49.66a2.14,2.14,0,0,1-1.19,3.33l-8.91,2.34a2.12,2.12,0,0,1-2.18-.69l-3.25-3.85a2.15,2.15,0,0,1-.39-2.07l3.26-9.52a2.36,2.36,0,0,0,.11-.59l.5-11.08a2.14,2.14,0,0,0-1.22-2l-7.28-3.44a2.13,2.13,0,0,0-2.78.9l-2.42,4.36a2.11,2.11,0,0,0-.24,1.37l1.49,9.49a2.09,2.09,0,0,1-.25,1.38l-2.6,4.61a2.14,2.14,0,0,1-2.32,1l-6.64-1.46a2.12,2.12,0,0,1-1.48-1.19h0a2.14,2.14,0,0,0-3.45-.62l-.67.67a2.13,2.13,0,0,1-1.51.63h-15V1024h387.25V995.55Z"/><path class="cls-25" d="M21,655V817.64H62.22l.57-3.65L71,805.24a2.14,2.14,0,0,0,.1-2.81l-2.29-2.83a2.13,2.13,0,0,1,.25-2.94l9.18-8.1a2.13,2.13,0,0,0,.5-2.56l-3.44-6.89a2.12,2.12,0,0,1,.46-2.52l9.95-9.18a2.14,2.14,0,0,1,2.36-.36l8.56,4a2.14,2.14,0,0,0,2.14-.18l8.82-6.21a2.14,2.14,0,0,0,0-3.48l-9-6.55a2.15,2.15,0,0,0-1.87-.32l-9.59,2.92a2.15,2.15,0,0,1-1.48-.08L76,753a1.79,1.79,0,0,1-.38-.22l-11.94-8.45a2.15,2.15,0,0,1-.9-1.75V729.83a2.2,2.2,0,0,1,.41-1.26l4-5.53a2.13,2.13,0,0,0-.14-2.69L64,716.92a2.12,2.12,0,0,1-.09-2.75l3.49-4.45a2.13,2.13,0,0,1,3.4,0l4.91,6.62a2.14,2.14,0,0,0,3,.44l4.86-3.62a2.14,2.14,0,0,0,.34-3.11L81,706.71a2.15,2.15,0,0,1,0-2.77l4.54-5.4a2.14,2.14,0,0,0,.25-2.38l-3-5.54a2.13,2.13,0,0,0-2.84-.9l-5.5,2.75a2.13,2.13,0,0,1-2.84-.9l-2-3.62a2.13,2.13,0,0,1,1-3l9.4-4.11a2.14,2.14,0,0,1,2.14.26l7.25,5.47a2.14,2.14,0,0,0,3.23-.83l4.21-9.35a2.13,2.13,0,0,0-1-2.81l-6.82-3.22a2.2,2.2,0,0,0-.71-.19l-16.72-1.54a2.17,2.17,0,0,0-.67.05l-4.9,1.11a2.13,2.13,0,0,1-2.48-1.35l-.67-1.81a2.24,2.24,0,0,1-.13-.73V655Z"/><path class="cls-25" d="M981,947.5l-.57,3.77a2.59,2.59,0,0,0,1.84,2.89l1.86.54a2.6,2.6,0,0,0,3.13-1.52l1-2.51a2.6,2.6,0,0,0-.81-3l-2.3-1.8a2.61,2.61,0,0,0-3.65.44h0A2.65,2.65,0,0,0,981,947.5Z"/><path class="cls-25" d="M883.16,935.46l-7.07.53a4.84,4.84,0,0,0-4.48,4.55l-.2,3.58a4.84,4.84,0,0,0,4.06,5.06l5,.8a4.83,4.83,0,0,0,5.16-2.72l2.31-4.91a4.84,4.84,0,0,0-2.31-6.44h0A4.86,4.86,0,0,0,883.16,935.46Z"/><path class="cls-25" d="M856,932.83l3.64,1.24a2.63,2.63,0,0,1,1.73,3L861,939a2.63,2.63,0,0,1-2.83,2.1l-2.71-.25a2.62,2.62,0,0,1-2.34-2.13l-.54-2.9a2.63,2.63,0,0,1,2.09-3.07h0A2.65,2.65,0,0,1,856,932.83Z"/><path class="cls-25" d="M770.87,937.56,768.44,940a1.53,1.53,0,0,1-2.23-.09l-2.81-3.25a1.53,1.53,0,0,1,1.41-2.51L770,935A1.53,1.53,0,0,1,770.87,937.56Z"/><path class="cls-25" d="M700.62,950.21l2.32.79a3.06,3.06,0,0,1,1.76,4.25L702.83,959a3.07,3.07,0,0,1-3.77,1.53l-.69-.25a3.07,3.07,0,0,0-3.9,1.83l-1.62,4.42a3.1,3.1,0,0,0-.18,1.35h0a3.05,3.05,0,0,1-2.94,3.36l-1.2,0a3,3,0,0,1-3.15-2.83l-.13-1.81a12.59,12.59,0,0,1,5.61-11.4l1.91-1.26,5.16-3.45A3.05,3.05,0,0,1,700.62,950.21Z"/><path class="cls-25" d="M656.31,960.79l3.12,4.9a1.43,1.43,0,0,1-.24,1.82L656.45,970a1.43,1.43,0,0,1-2-.08l-1.4-1.53a1.42,1.42,0,0,1,.75-2.35h0a1.42,1.42,0,0,0,.94-2.1l-1-1.71a1.42,1.42,0,0,1,1.58-2.08l.12,0A1.46,1.46,0,0,1,656.31,960.79Z"/><path class="cls-25" d="M869.8,815.84l8.06,11.83a5.31,5.31,0,0,1,0,6l-3.24,4.79a5.29,5.29,0,0,1-7.72,1.16h0a5.3,5.3,0,0,0-8.22,2.07l-.73,1.73a5.25,5.25,0,0,0,.24,4.59l3.56,6.5a5.3,5.3,0,0,1-6.42,7.54L844,858a5.31,5.31,0,0,1-3.53-5V833.81a5.24,5.24,0,0,1,.2-1.42l5.47-19.59a5.29,5.29,0,0,1,6.73-3.61l14.22,4.59A5.29,5.29,0,0,1,869.8,815.84Z"/><path class="cls-25" d="M992.21,815.66v14.86a4.47,4.47,0,0,1-2.72,4.11l-5,2.14a22.86,22.86,0,0,1-14.93,1l-7-1.9a10.2,10.2,0,0,1-7.5-9.84h0a10.2,10.2,0,0,1,5.47-9l1.06-.55a10.21,10.21,0,0,1,9.14-.16l4.36,2.1a4.48,4.48,0,0,0,5.31-1.09l4-4.57a4.47,4.47,0,0,1,6.84.12h0A4.43,4.43,0,0,1,992.21,815.66Z"/><path class="cls-25" d="M977.34,814.21h0a2.05,2.05,0,0,1-2.32.17l-3.2-1.89a2,2,0,0,1-.16-3.41l1-.72a2,2,0,0,1,2.75.34l2.2,2.61A2,2,0,0,1,977.34,814.21Z"/><path class="cls-25" d="M986.79,841.67l-4.34,1.53a3.39,3.39,0,0,0-1.58,5.24l2.16,2.87a3.39,3.39,0,0,0,4.61.76l3.14-2.14a3.38,3.38,0,0,0,1.22-4.12l-1-2.26A3.38,3.38,0,0,0,986.79,841.67Z"/><path class="cls-25" d="M802.35,860.29l-9.77,3.46A7.63,7.63,0,0,0,789,875.53l4.85,6.46a7.63,7.63,0,0,0,10.4,1.72l7.08-4.81a7.64,7.64,0,0,0,2.74-9.28l-2.16-5.1A7.63,7.63,0,0,0,802.35,860.29Z"/><path class="cls-25" d="M879,843.4l-5.74,2.34a2.55,2.55,0,0,0-1.54,2.92l.74,3.41a2.56,2.56,0,0,0,3.36,1.87l3.77-1.33a2.55,2.55,0,0,0,1.62-1.73l1.23-4.42A2.57,2.57,0,0,0,879,843.4Z"/><path class="cls-25" d="M936.69,373l-8.06,11.83a5.29,5.29,0,0,0,0,5.95l3.23,4.8a5.31,5.31,0,0,0,7.73,1.15h0a5.3,5.3,0,0,1,8.22,2.07l.73,1.73a5.32,5.32,0,0,1-.24,4.59l-3.56,6.5a5.3,5.3,0,0,0,6.41,7.54l11.38-4a5.3,5.3,0,0,0,3.53-5V391a5.23,5.23,0,0,0-.19-1.42L960.39,370a5.3,5.3,0,0,0-6.74-3.61L939.44,371A5.29,5.29,0,0,0,936.69,373Z"/><path class="cls-25" d="M880.67,220.85V235.7a4.48,4.48,0,0,0,2.73,4.12l5,2.13a22.77,22.77,0,0,0,14.92,1l7-1.9a10.19,10.19,0,0,0,7.5-9.83h0a10.19,10.19,0,0,0-5.47-9l-1.05-.55a10.21,10.21,0,0,0-9.14-.16l-4.37,2.1a4.47,4.47,0,0,1-5.3-1.09l-4-4.57a4.47,4.47,0,0,0-6.84.12h0A4.52,4.52,0,0,0,880.67,220.85Z"/><path class="cls-25" d="M895.55,219.39h0a2,2,0,0,0,2.31.17l3.2-1.89a2,2,0,0,0,.16-3.4l-1-.73a2,2,0,0,0-2.75.34l-2.2,2.61A2,2,0,0,0,895.55,219.39Z"/><path class="cls-25" d="M886.09,246.85l4.35,1.54a3.39,3.39,0,0,1,1.57,5.23l-2.15,2.87a3.4,3.4,0,0,1-4.62.76l-3.14-2.14a3.39,3.39,0,0,1-1.21-4.12l1-2.26A3.39,3.39,0,0,1,886.09,246.85Z"/><path class="cls-25" d="M927.54,400.58l5.74,2.34a2.55,2.55,0,0,1,1.54,2.92l-.75,3.41a2.56,2.56,0,0,1-3.36,1.87l-3.77-1.33a2.57,2.57,0,0,1-1.62-1.73l-1.22-4.41A2.57,2.57,0,0,1,927.54,400.58Z"/><path class="cls-25" d="M341.13,929.79,337,916.09a5.31,5.31,0,0,1,1.78-5.68l4.53-3.6A5.3,5.3,0,0,1,351,908h0a5.3,5.3,0,0,0,8.46.5l1.22-1.43a5.32,5.32,0,0,0,1.15-4.46l-1.44-7.27a5.29,5.29,0,0,1,8.38-5.26l9.65,7.26a5.28,5.28,0,0,1,1.86,5.82l-5.76,18.29a5.32,5.32,0,0,1-.61,1.3l-11.11,17a5.3,5.3,0,0,1-7.51,1.43l-12.17-8.66A5.29,5.29,0,0,1,341.13,929.79Z"/><path class="cls-25" d="M356.54,880.14l2-5.87a2.56,2.56,0,0,0-1.21-3.08l-3.07-1.67a2.57,2.57,0,0,0-3.61,1.33l-1.46,3.72a2.57,2.57,0,0,0,.25,2.36l2.54,3.81A2.57,2.57,0,0,0,356.54,880.14Z"/><path class="cls-25" d="M795.28,857.82l6.12-1a2.56,2.56,0,0,0,2.15-2.51l0-3.49a2.57,2.57,0,0,0-2.86-2.57l-4,.46a2.53,2.53,0,0,0-2,1.33l-2.18,4A2.57,2.57,0,0,0,795.28,857.82Z"/><path class="cls-25" d="M789.31,887l-1.87,2.73a2.16,2.16,0,0,1-3.28.33l-3.57-3.47a2.15,2.15,0,0,1,1.79-3.68l5.43.73A2.16,2.16,0,0,1,789.31,887Z"/><path class="cls-25" d="M689.12,900.72l-.53,6.17a2.56,2.56,0,0,0,1.9,2.7l3.38.89a2.57,2.57,0,0,0,3.2-2.14l.52-4a2.56,2.56,0,0,0-.8-2.22l-3.38-3.1A2.56,2.56,0,0,0,689.12,900.72Z"/><path class="cls-25" d="M659.55,878.92l-2.19-2.48a2.16,2.16,0,0,1,.48-3.26l4.24-2.61a2.16,2.16,0,0,1,3.13,2.64l-2,5.09A2.16,2.16,0,0,1,659.55,878.92Z"/><path class="cls-25" d="M616,820.15V659.52H574.19v2.62a2.14,2.14,0,0,1-.52,1.39l-3.71,4.3a2.15,2.15,0,0,0,0,2.85l1.69,1.82a2.07,2.07,0,0,0,1.18.65l4.94.91a2.14,2.14,0,0,1,1.7,2.54l-.92,4.51a2.14,2.14,0,0,1-2.1,1.71h-4.07a2.12,2.12,0,0,0-1.75.92l-3.34,4.79a2.12,2.12,0,0,1-1.75.92H556.5a2.14,2.14,0,0,0-2.13,1.89l-.78,6.82a2.15,2.15,0,0,0,1,2.08l5.51,3.28a2.14,2.14,0,0,1,1,1.84v1.43a2.13,2.13,0,0,1-1.63,2.07l-6.81,1.64a2.14,2.14,0,0,1-2-.56l-7.83-7.7a2.14,2.14,0,0,1-.64-1.67l.67-9.78a2.15,2.15,0,0,0-1.76-2.25L534,687.28a2.15,2.15,0,0,0-2.51,2.07l-.22,11.36a2.15,2.15,0,0,0,.55,1.47l9.39,10.46a3.83,3.83,0,0,0,.29.28L550.8,720a2.17,2.17,0,0,0,1.73.39l12.76-2.64a2.16,2.16,0,0,0,.49-.16l5.1-2.44a2.14,2.14,0,0,1,2.35.34l6.3,5.69a2.15,2.15,0,0,1,.17,3l-5,5.59a2.11,2.11,0,0,0-.54,1.41v15.5a2.1,2.1,0,0,1-.72,1.59l-5.7,5.07a2.13,2.13,0,0,0-.38,2.75l3.36,5.25a2.07,2.07,0,0,0,.7.68l5.57,3.33a2.13,2.13,0,0,0,2.36-.1l.66-.49a2.14,2.14,0,0,1,3.33,1.18l2.34,8.92A2.14,2.14,0,0,1,585,777l-3.86,3.25a2.15,2.15,0,0,1-2.07.39l-9.51-3.26a2.53,2.53,0,0,0-.6-.11l-11.07-.5a2.14,2.14,0,0,0-2,1.22l-3.45,7.28a2.13,2.13,0,0,0,.9,2.78l4.36,2.42a2.11,2.11,0,0,0,1.37.24l9.49-1.5a2.23,2.23,0,0,1,1.39.25l4.6,2.61a2.14,2.14,0,0,1,1,2.32l-1.45,3.64a2.16,2.16,0,0,1-1.2,1.48,2.13,2.13,0,0,0-.61,3.45l.66.67a2.09,2.09,0,0,1,.63,1.51v15Z"/><path class="cls-25" d="M133.72,703.1,124,706.56a7.64,7.64,0,0,0-3.56,11.79l4.86,6.46a7.64,7.64,0,0,0,10.4,1.72l7.07-4.82a7.63,7.63,0,0,0,2.74-9.28l-2.16-5.1A7.64,7.64,0,0,0,133.72,703.1Z"/><path class="cls-25" d="M126.65,700.64l6.12-1a2.56,2.56,0,0,0,2.15-2.51l0-3.49a2.56,2.56,0,0,0-2.86-2.57l-4,.46a2.57,2.57,0,0,0-2,1.33l-2.18,4A2.57,2.57,0,0,0,126.65,700.64Z"/><path class="cls-25" d="M263.78,908.52l6.12-1a2.58,2.58,0,0,0,2.15-2.51l0-3.5a2.57,2.57,0,0,0-2.86-2.57l-4,.46a2.6,2.6,0,0,0-2,1.33l-2.17,4A2.57,2.57,0,0,0,263.78,908.52Z"/><path class="cls-25" d="M120.68,729.78l-1.87,2.73a2.16,2.16,0,0,1-3.28.33L112,729.38a2.16,2.16,0,0,1,1.79-3.69l5.44.73A2.16,2.16,0,0,1,120.68,729.78Z"/><path class="cls-25" d="M157.61,182.1l-15.45-7.46a12.63,12.63,0,0,0-18,9.55l-1.94,13.23a12.64,12.64,0,0,0,10.09,14.23l13.91,2.71a12.64,12.64,0,0,0,14.1-7.59l3.48-8.48A12.64,12.64,0,0,0,157.61,182.1Z"/><path class="cls-25" d="M152.27,170.92l8.31,6a4.25,4.25,0,0,0,5.46-.39l4.14-4a4.26,4.26,0,0,0-.31-6.37L164.7,162a4.27,4.27,0,0,0-3.85-.76l-7.28,2.14A4.26,4.26,0,0,0,152.27,170.92Z"/><path class="cls-25" d="M111.05,197.85l-5.39,1a3.56,3.56,0,0,1-4.2-3.47l-.09-8.23a3.57,3.57,0,0,1,6.42-2.19l5.47,7.24A3.58,3.58,0,0,1,111.05,197.85Z"/><path class="cls-25" d="M540.32,746.69l-10.21-1.82a7.64,7.64,0,0,0-8.92,8.49l1,8a7.64,7.64,0,0,0,8.19,6.64l8.53-.69a7.65,7.65,0,0,0,7-6.72l.65-5.5A7.65,7.65,0,0,0,540.32,746.69Z"/><path class="cls-25" d="M535.39,741.05l5.81,2.16a2.57,2.57,0,0,0,3.11-1.12l1.75-3a2.56,2.56,0,0,0-1.21-3.65l-3.68-1.57a2.61,2.61,0,0,0-2.37.19l-3.88,2.43A2.56,2.56,0,0,0,535.39,741.05Z"/><path class="cls-25" d="M515.79,763.44l-3,1.45a2.16,2.16,0,0,1-3-1.34l-1.39-4.77a2.16,2.16,0,0,1,3.38-2.32l4.36,3.33A2.15,2.15,0,0,1,515.79,763.44Z"/><path class="cls-25" d="M477.57,680.35l1.28-3.06a2.16,2.16,0,0,1,3.14-1l4.2,2.67a2.16,2.16,0,0,1-1,4l-5.47.39A2.16,2.16,0,0,1,477.57,680.35Z"/><path class="cls-25" d="M446.94,711h0a6.4,6.4,0,0,1,9.34-2.94h0a6.4,6.4,0,0,1-3,11.79h0A6.4,6.4,0,0,1,446.94,711Z"/><path class="cls-25" d="M464,718.4h0a3.85,3.85,0,0,1,5.62-1.77h0a3.85,3.85,0,0,1-1.79,7.09h0A3.85,3.85,0,0,1,464,718.4Z"/><path class="cls-25" d="M353.25,815.57l-19.72,7.21a6.37,6.37,0,0,0-4.13,5.2l-1,7.81a6.35,6.35,0,0,0,3.2,6.33l3.18,1.79a6.37,6.37,0,0,0,8.6-2.31l3.43-5.79a6.37,6.37,0,0,1,7.64-2.74h0a6.38,6.38,0,0,0,8.39-7.37l-1.22-5.52A6.38,6.38,0,0,0,353.25,815.57Z"/><path class="cls-25" d="M339.45,815.09l-1.62.49a1.48,1.48,0,0,1-1.9-1.68l.33-1.84a1.48,1.48,0,0,1,2.53-.77l1.3,1.34A1.49,1.49,0,0,1,339.45,815.09Z"/><path class="cls-25" d="M244.49,852.41l-1.69-.15a1.49,1.49,0,0,1-1.13-2.28l1-1.58a1.49,1.49,0,0,1,2.64.24l.69,1.74A1.48,1.48,0,0,1,244.49,852.41Z"/><path class="cls-25" d="M259.25,848.48l-5.51,3a5.48,5.48,0,0,0-2.57,3l-.14.39a5.51,5.51,0,0,1-6.32,3.51l-3.05-.65a5.51,5.51,0,0,0-6.19,3.2h0a5.49,5.49,0,0,0,2.78,7.2l2.22,1a5.59,5.59,0,0,0,1.61.45l9.91,1.2a5.52,5.52,0,0,0,5.64-3.12l1.58-3.36a5.49,5.49,0,0,1,4.07-3.08l.61-.11a5.49,5.49,0,0,0,4-7.85l-1.13-2.31A5.5,5.5,0,0,0,259.25,848.48Z"/><path class="cls-25" d="M265.67,866.14h0a1.86,1.86,0,0,0-2.47,1.41h0a1.86,1.86,0,0,0,3.18,1.61h0A1.86,1.86,0,0,0,265.67,866.14Z"/><path class="cls-25" d="M278.37,617.21l9.62-10.6a5.3,5.3,0,0,0,.84-5.89l-2.55-5.2a5.3,5.3,0,0,0-7.49-2.21h0a5.3,5.3,0,0,1-7.85-3.18l-.48-1.82a5.33,5.33,0,0,1,.87-4.52l4.43-5.94a5.3,5.3,0,0,0-5.31-8.36l-11.83,2.41a5.31,5.31,0,0,0-4.19,4.46l-2.65,19a5.34,5.34,0,0,0,0,1.44l2.71,20.16a5.29,5.29,0,0,0,6.16,4.51l14.72-2.58A5.29,5.29,0,0,0,278.37,617.21Z"/><path class="cls-25" d="M291.25,591.19l-5.36-3.11a2.55,2.55,0,0,1-1.12-3.11l1.21-3.28a2.57,2.57,0,0,1,3.59-1.39l3.54,1.85a2.55,2.55,0,0,1,1.37,1.94l.6,4.54A2.57,2.57,0,0,1,291.25,591.19Z"/><path class="cls-25" d="M357.36,631.25l-5.1-3.54a2.57,2.57,0,0,1-.86-3.19l1.47-3.16a2.57,2.57,0,0,1,3.69-1.1l3.39,2.13a2.54,2.54,0,0,1,1.2,2l.23,4.58A2.57,2.57,0,0,1,357.36,631.25Z"/><path class="cls-25" d="M255.17,523.73l14.71,15a6.4,6.4,0,0,1,1.5,6.48l-2.49,7.45a6.37,6.37,0,0,1-5.61,4.35l-3.64.24a6.37,6.37,0,0,1-6.78-5.78l-.61-6.7a6.38,6.38,0,0,0-5.72-5.76h0a6.37,6.37,0,0,1-4.4-10.26l3.47-4.45A6.37,6.37,0,0,1,255.17,523.73Z"/><path class="cls-25" d="M369.14,529.22l-1.25,1.15a1.49,1.49,0,0,1-2.44-.71l-.49-1.8a1.49,1.49,0,0,1,2-1.79l1.75.66A1.49,1.49,0,0,1,369.14,529.22Z"/><path class="cls-25" d="M398.89,588.88l1.59.58a1.49,1.49,0,0,0,2-1.57l-.23-1.85a1.48,1.48,0,0,0-2.48-.92l-1.37,1.27A1.49,1.49,0,0,0,398.89,588.88Z"/><path class="cls-25" d="M387.25,579l3.7,5a5.5,5.5,0,0,1,1,3.78l0,.43a5.51,5.51,0,0,0,4.2,5.88l3,.72a5.51,5.51,0,0,1,4.22,5.55h0a5.51,5.51,0,0,1-5.61,5.31l-2.44-.05a5.39,5.39,0,0,1-1.64-.29l-9.46-3.18a5.5,5.5,0,0,1-3.75-5.24l0-3.71a5.53,5.53,0,0,0-2.36-4.53l-.5-.36a5.5,5.5,0,0,1-.27-8.83l2-1.59A5.51,5.51,0,0,1,387.25,579Z"/><path class="cls-25" d="M373.87,592.17h0a1.85,1.85,0,0,1,1.61,2.33h0a1.86,1.86,0,0,1-3.56.09h0A1.86,1.86,0,0,1,373.87,592.17Z"/><path class="cls-25" d="M613,180.37l2.57.95a2.4,2.4,0,0,0,3.21-2.53l-.36-3a2.4,2.4,0,0,0-4-1.48l-2.2,2A2.4,2.4,0,0,0,613,180.37Z"/><path class="cls-25" d="M594.24,164.44l6,8.13a8.83,8.83,0,0,1,1.68,6.09l-.07.68a8.87,8.87,0,0,0,6.75,9.47l4.89,1.17a8.86,8.86,0,0,1,6.79,8.93h0a8.85,8.85,0,0,1-9,8.54l-3.93-.08a8.52,8.52,0,0,1-2.64-.46l-15.23-5.12a8.84,8.84,0,0,1-6-8.43l0-6a8.85,8.85,0,0,0-3.8-7.3l-.81-.57a8.86,8.86,0,0,1-.43-14.22l3.24-2.56A8.86,8.86,0,0,1,594.24,164.44Z"/><path class="cls-25" d="M572.69,185.67h0a3,3,0,0,1,2.6,3.76h0a3,3,0,0,1-5.73.13h0A3,3,0,0,1,572.69,185.67Z"/><path class="cls-25" d="M898.85,170.42l12.79,33.17a4.82,4.82,0,0,1,2.12,3.49L917,249.93a4.93,4.93,0,0,1-.12,1.71l-4.72,18.84v0a4.34,4.34,0,0,0,2.78,5l43.18,16.24a4.83,4.83,0,0,0,6.89.4l12.18-11a4.85,4.85,0,0,0,1.57-3.07l2.57-23.43,2.78-48.54L986.69,179a4.84,4.84,0,0,0-1.49-4l-21.32-20.19a4.86,4.86,0,0,0-4.53-1.18l-24,6.13a4.36,4.36,0,0,1-1,.14l-33.08,1.59A4.85,4.85,0,0,0,898.85,170.42Z"/><polygon class="cls-25" points="945.57 338.94 951.11 354.33 951.11 366.11 953.88 380.19 953.88 414.05 953.88 431.29 956.35 443.3 966.05 455.31 982.51 439.91 990.83 377.73 979.74 333.57 951.42 328.55 945.57 338.94"/><path class="cls-25" d="M863,219.7l3.83-.56a1.61,1.61,0,0,1,1.64,2.37L867,224a1.58,1.58,0,0,1-1.24.81l-2.49.25a1.6,1.6,0,0,1-1.76-1.64l.05-2.18A1.61,1.61,0,0,1,863,219.7Z"/><path class="cls-25" d="M845.06,170.64l18,1.17,2,7.18-5.66,8.53-1.75,7.16-.27.58,6.64,4.1a3.35,3.35,0,0,1,1.37,1.67l3.13,8.39a3.29,3.29,0,0,1-.88,3.61l-2.68,2.43a3.3,3.3,0,0,1-4.86-.45,3.32,3.32,0,0,0-5.31,0l-.7.94a3.32,3.32,0,0,0-.54,2.83l1.2,4.48a3.32,3.32,0,0,1-5,3.63l-1.52-1-1.95,7.95-3.28,6.93-7.69,5.85-7.71-11.81,4.21-39Z"/><path class="cls-25" d="M897.06,363.67l1.72,10.74a3.5,3.5,0,0,0,3.46,3h.94a3.5,3.5,0,0,0,2.48-1l1.89-1.89a3.51,3.51,0,0,0-1.14-5.72h0a3.51,3.51,0,0,1-2.15-3.62l.2-1.9a3.51,3.51,0,0,0-5.37-3.34l-.45.28A3.52,3.52,0,0,0,897.06,363.67Z"/><path class="cls-25" d="M861.23,688l56-13.94a18.44,18.44,0,0,0,3.54-1.27l6.85-3.28A18.59,18.59,0,0,1,950,674.43h0a18.6,18.6,0,0,0,15.32,6.73l34.18-1.81,3.46,12.1L972.4,719.67l-70.27-2.3Z"/><path class="cls-25" d="M769.62,696.59l34.73-8.65a11.52,11.52,0,0,0,2.2-.78l4.25-2a11.53,11.53,0,0,1,13.87,3.06h0a11.55,11.55,0,0,0,9.51,4.18l21.2-1.13,2.14,7.51-18.94,17.51L795,714.82Z"/><path class="cls-25" d="M829.26,643.41l-2.35,4.12a4.61,4.61,0,0,0,2.75,6.72h0a4.63,4.63,0,0,0,4.65-1.32l3.07-3.34a4.61,4.61,0,0,0,0-6.24l-.72-.78A4.61,4.61,0,0,0,829.26,643.41Z"/><path class="cls-25" d="M938,654.24l2.64,6.1a6.44,6.44,0,0,0,9.81,2.56h0a6.43,6.43,0,0,0,2.43-6.3l-1.15-6.24a6.45,6.45,0,0,0-7-5.24l-1.48.15A6.44,6.44,0,0,0,938,654.24Z"/><path class="cls-25" d="M912.7,594.6c0,.78.24,8.37.43,14.14a5.63,5.63,0,0,0,6.7,5.35l8.17-1.6a5.65,5.65,0,0,1,4.78,1.28l2.52,2.2a5.61,5.61,0,0,0,4.54,1.32l10.1-1.53a5.61,5.61,0,0,1,5.88,3h0a5.66,5.66,0,0,0,5,3.11h7.78a5.64,5.64,0,0,0,5.6-5L975.78,603a5.65,5.65,0,0,0-1.14-4.06l-11.35-14.72a5.61,5.61,0,0,0-3.85-2.15l-27.57-3a5.78,5.78,0,0,0-2.67.36l-12.92,5.08a5.63,5.63,0,0,0-3.58,5.24Z"/><path class="cls-25" d="M680.56,148.72l-7.3,9.37a3.26,3.26,0,0,0-.15,3.8l7.45,11.36a3.27,3.27,0,0,1,.43,2.62l-3.54,13.47a3.26,3.26,0,0,0,2.45,4l12.81,2.85a3.28,3.28,0,0,1,2.54,2.8l2.28,19.29a3.26,3.26,0,0,0,4.13,2.76L715,217.27a3.26,3.26,0,0,1,3.87,1.8L725,232.78a3.26,3.26,0,0,0,4,1.75l29.36-10.08a3.27,3.27,0,0,0,2.1-3.91l-1.89-7.24a3.28,3.28,0,0,1,1.09-3.35l11.71-9.55a3.27,3.27,0,0,0,1.2-2.53V186.11a3.33,3.33,0,0,1,.78-2.13L782,174a3.26,3.26,0,0,0-1.14-5.1l-4.94-2.22a3.27,3.27,0,0,1-1.24-5l5.25-6.78a3.26,3.26,0,0,0-1.83-5.17l-42.11-10a3.39,3.39,0,0,0-1.23,0l-52.1,7.81A3.24,3.24,0,0,0,680.56,148.72Z"/><path class="cls-25" d="M811.8,143.59l-12.6,5.25a3.24,3.24,0,0,0-2,2.45l-1.38,7.93a3.24,3.24,0,0,0,.07,1.42l3.18,11.55a3.19,3.19,0,0,1,0,1.81l-5.28,17.48a3.29,3.29,0,0,0,.12,2.23l4,9.35a3.26,3.26,0,0,1-1,3.84l-15,12a3.28,3.28,0,0,0-1.22,2.55V239.8a3.27,3.27,0,0,1-1.57,2.79l-17.73,10.8A3.26,3.26,0,0,0,760,257l5,20.59a3.24,3.24,0,0,1-.38,2.47l-6.3,10.38a3.24,3.24,0,0,1-2.05,1.48l-26,6.06a3.27,3.27,0,0,0-2.4,2.31h0a3.27,3.27,0,0,1-5.61,1.28l-11.34-13a3.28,3.28,0,0,0-2.31-1.12l-16.3-.7a3.28,3.28,0,0,1-3.13-3.33l.38-20.05a3.26,3.26,0,0,0-1.41-2.75l-12.39-8.51a3.24,3.24,0,0,1-1.38-2.17l-7.48-46.74a1.5,1.5,0,0,1,0-.2l-1.67-17.09a3.24,3.24,0,0,0-1.28-2.28L657.77,179a3.25,3.25,0,0,1-1.18-3.46l6-22a3.36,3.36,0,0,1,.4-.91l4.15-6.43a3.26,3.26,0,0,0-1.85-4.91l-14.1-4a3.23,3.23,0,0,0-3,.61c-2.75,2.25-2.56,8.25-1.07,8.25,1.92,0-.32,78.23.13,81.43.42,2.89,3.1,55.06,4.57,64.73a3.24,3.24,0,0,0,1.6,2.33l27.17,20.3a2.38,2.38,0,0,0,.51.24l44.42,16.13a3.36,3.36,0,0,0,1.26.19l51.51-2.4a3.28,3.28,0,0,0,2.41-1.24l23.88-30.26a3.3,3.3,0,0,0,.68-1.57l9.14-65.93,9.92-65.57a3.23,3.23,0,0,0-.24-1.79l-5.66-13.05a1.77,1.77,0,0,0-.15-.31L815.9,145A3.27,3.27,0,0,0,811.8,143.59Z"/><path class="cls-25" d="M680.56,328.07l-7.3,9.38a3.25,3.25,0,0,0-.15,3.79l7.45,11.36a3.27,3.27,0,0,1,.43,2.62l-3.54,13.47a3.28,3.28,0,0,0,2.45,4l12.81,2.84a3.28,3.28,0,0,1,2.54,2.81l2.28,19.29a3.26,3.26,0,0,0,4.13,2.75L715,396.62a3.27,3.27,0,0,1,3.87,1.81l6.16,13.7a3.26,3.26,0,0,0,4,1.75l29.36-10.08a3.27,3.27,0,0,0,2.1-3.91l-1.89-7.23a3.29,3.29,0,0,1,1.09-3.36l11.71-9.55a3.27,3.27,0,0,0,1.2-2.53V365.46a3.28,3.28,0,0,1,.78-2.12l8.62-10a3.27,3.27,0,0,0-1.14-5.11L775.91,346a3.26,3.26,0,0,1-1.24-5l5.25-6.79a3.26,3.26,0,0,0-1.83-5.17l-42.11-10a3,3,0,0,0-1.23,0l-52.1,7.8A3.28,3.28,0,0,0,680.56,328.07Z"/><path class="cls-25" d="M811.8,323l-12.6,5.24a3.26,3.26,0,0,0-2,2.45l-1.38,7.93a3.3,3.3,0,0,0,.07,1.43l3.18,11.55a3.19,3.19,0,0,1,0,1.81l-5.28,17.47a3.29,3.29,0,0,0,.12,2.23l4,9.36a3.25,3.25,0,0,1-1,3.83l-15,12a3.28,3.28,0,0,0-1.22,2.55v18.39a3.27,3.27,0,0,1-1.57,2.79l-17.73,10.8A3.26,3.26,0,0,0,760,436.3l5,20.59a3.24,3.24,0,0,1-.38,2.47l-6.3,10.38a3.2,3.2,0,0,1-2.05,1.48l-26,6.07a3.26,3.26,0,0,0-2.4,2.3h0a3.27,3.27,0,0,1-5.61,1.28l-11.34-13a3.27,3.27,0,0,0-2.31-1.11l-16.3-.71a3.27,3.27,0,0,1-3.13-3.32l.38-20.06a3.26,3.26,0,0,0-1.41-2.75l-12.39-8.5a3.28,3.28,0,0,1-1.38-2.18l-7.48-46.74a1.36,1.36,0,0,1,0-.2l-1.67-17.08a3.26,3.26,0,0,0-1.28-2.29l-6.11-4.61a3.27,3.27,0,0,1-1.18-3.47l6-22a3.3,3.3,0,0,1,.4-.9l4.15-6.44a3.25,3.25,0,0,0-1.85-4.9l-14.1-4a3.26,3.26,0,0,0-3,.61c-2.75,2.25-8.67,7.23-7.18,7.23,1.92,0-8.28,79.26-7.83,82.45.41,2.9,8.28,54.62,9.75,64.29a3.25,3.25,0,0,0,1.6,2.33l36.06,20.75a4,4,0,0,0,.51.24l44.42,16.12a3.17,3.17,0,0,0,1.26.19l51.51-2.4a3.24,3.24,0,0,0,2.41-1.24l23.88-30.26a3.26,3.26,0,0,0,.68-1.57l9.14-65.93,9.92-65.57a3.24,3.24,0,0,0-.24-1.79L818.49,329a1.68,1.68,0,0,0-.15-.3l-2.44-4.35A3.26,3.26,0,0,0,811.8,323Z"/><path class="cls-25" d="M723.07,422.29l-12.09,5a4,4,0,0,0-2.43,3.61l0,4.82a20,20,0,0,0,4.22,12.48l3.89,5a9,9,0,0,0,10.54,2.8h0a9,9,0,0,0,5.51-7.5l.09-1a9,9,0,0,0-3-7.49l-3.17-2.85a3.93,3.93,0,0,1-.9-4.68l2.37-4.78a3.93,3.93,0,0,0-2.4-5.52h0A4,4,0,0,0,723.07,422.29Z"/><path class="cls-25" d="M729.27,433.91h0a1.79,1.79,0,0,0,.65,1.94l2.61,2a1.8,1.8,0,0,0,2.83-1l.25-1.06a1.79,1.79,0,0,0-1.2-2.12l-2.87-.92A1.81,1.81,0,0,0,729.27,433.91Z"/><path class="cls-25" d="M703.73,435.47l.22,4a3,3,0,0,1-3.73,3.05l-3.06-.78a3,3,0,0,1-2.18-3.5l.68-3.28a3,3,0,0,1,2.94-2.38l2.17,0A3,3,0,0,1,703.73,435.47Z"/><path class="cls-25" d="M737,255.71h0a1.81,1.81,0,0,0,.64,1.94l2.62,2a1.79,1.79,0,0,0,2.82-1l.25-1.05a1.79,1.79,0,0,0-1.2-2.13l-2.86-.91A1.8,1.8,0,0,0,737,255.71Z"/><path class="cls-25" d="M780.18,193.53h0a1.78,1.78,0,0,0,2-.4l2.27-2.36a1.79,1.79,0,0,0-.67-2.93l-1-.38a1.81,1.81,0,0,0-2.26.94l-1.25,2.74A1.79,1.79,0,0,0,780.18,193.53Z"/><path class="cls-25" d="M728.56,252.49l.29,5.57a4.1,4.1,0,0,1-5.12,4.2l-4.21-1.09a4.09,4.09,0,0,1-3-4.81l.93-4.51a4.11,4.11,0,0,1,4-3.27l3,0A4.11,4.11,0,0,1,728.56,252.49Z"/><path class="cls-25" d="M306.06,183.68l0,.9a3.47,3.47,0,0,0,5.53,2.87l0,0a3.46,3.46,0,0,0,1.41-2.88l0-.86a3.46,3.46,0,0,0-4-3.35h0A3.47,3.47,0,0,0,306.06,183.68Z"/><path class="cls-25" d="M319,148.9l4.81,10.93a8.21,8.21,0,0,1-1.91,9.29h0a8.22,8.22,0,0,1-6.46,2.16l-9.31-1-5.71,1.29a6,6,0,0,0-4.62,5.38l-.41,5.57a4.26,4.26,0,0,1-1.08,2.54l-7.69,8.51a4.23,4.23,0,0,1-4.63,1.14l-4.35-1.61a4.15,4.15,0,0,1-2.4-5.72,4.25,4.25,0,0,0-3.13-6.09l-1.49-.23a4.23,4.23,0,0,0-3.53,1.05l-4.39,4a4.25,4.25,0,0,1-7.09-3.57h0a1.65,1.65,0,0,0-2-1.77l-3.35.82a46.09,46.09,0,0,1-9.28,1.28l-3.12.12a8.12,8.12,0,0,1-3.79-.78l-1.43-.67A8.19,8.19,0,0,1,229,170.12l3.11-5.52a8.21,8.21,0,0,1,4.16-3.61l42.66-16.63a8.11,8.11,0,0,1,3-.56l29.61.21A8.19,8.19,0,0,1,319,148.9Z"/><path class="cls-25" d="M387.13,256.45h0a3.2,3.2,0,0,1,3.51.77l1.24,1.32a3.18,3.18,0,0,1,.18,4.16l-.15.19a3.18,3.18,0,0,1-5.09-.11l-1.08-1.5A3.19,3.19,0,0,1,387.13,256.45Z"/><path class="cls-25" d="M349.63,237.79h0a26.48,26.48,0,0,0,10.77-1.47l5.08-1.82a15.11,15.11,0,0,0,8.52-7.68h0a15.09,15.09,0,0,0-.32-13.69l-4.45-8.25a4.07,4.07,0,0,1,.57-4.69h0a4.08,4.08,0,0,1,6.2.2l1.09,1.35a4.07,4.07,0,0,0,5,1.07l.87-.44a4.08,4.08,0,0,1,5.32,1.46l7.37,11.73a4.09,4.09,0,0,1-.49,5l-4,4.23a4.09,4.09,0,0,0-.94,4l4.12,13.58a4.08,4.08,0,0,1-3.26,5.21l-7.59,1.22a4.07,4.07,0,0,0-3.4,3.5l-.72,5.54a4.08,4.08,0,0,1-6.94,2.35l-5.45-5.5a4.1,4.1,0,0,0-5-.62l-2.18,1.32a4.1,4.1,0,0,1-4.73-.37l-6-5a4.07,4.07,0,0,1-1.05-1.35l-2.42-5A4.08,4.08,0,0,1,349.63,237.79Z"/></g><g class="cls-26"><path class="cls-4" d="M401.3,237.68a5.9,5.9,0,0,0,2.16-3.65,2.54,2.54,0,0,0-4.09-2.4l-3.51,2.78a2.55,2.55,0,0,0,1.39,4.54A5.94,5.94,0,0,0,401.3,237.68Z"/><path class="cls-4" d="M271.61,184.6A17.31,17.31,0,0,0,278,173.89a7.47,7.47,0,0,0-12-7L255.64,175a7.47,7.47,0,0,0,4.08,13.31A17.33,17.33,0,0,0,271.61,184.6Z"/><path class="cls-4" d="M288.49,175a6.67,6.67,0,0,0-1.37-4.54,2.85,2.85,0,0,0-5.07,1.57l-.36,5a2.84,2.84,0,0,0,4.79,2.27A6.57,6.57,0,0,0,288.49,175Z"/><circle class="cls-4" cx="280.21" cy="187.84" r="3.03"/><path class="cls-4" d="M260,246a12.56,12.56,0,0,0,8.48,3,5.38,5.38,0,0,0,3.23-9.5l-7.24-6.11a5.38,5.38,0,0,0-8.81,4.8A12.52,12.52,0,0,0,260,246Z"/><path class="cls-4" d="M278.6,257a6.65,6.65,0,0,1-4.74.19,2.84,2.84,0,0,1-.17-5.3l4.6-2a2.85,2.85,0,0,1,3.72,3.78A6.62,6.62,0,0,1,278.6,257Z"/><path class="cls-4" d="M372.84,176.84c1.26,3.26,1.51,6.2-1.74,7.46a6.32,6.32,0,0,1-8.18-3.6c-1.27-3.25.89-5.52,4.14-6.79S371.57,173.59,372.84,176.84Z"/><path class="cls-4" d="M578.42,780.85a5.92,5.92,0,0,0,2.17-3.65,2.54,2.54,0,0,0-4.09-2.4L573,777.58a2.55,2.55,0,0,0,1.4,4.54A6,6,0,0,0,578.42,780.85Z"/><path class="cls-4" d="M514,705.08a17.37,17.37,0,0,0,6.35-10.71,7.46,7.46,0,0,0-12-7L498,695.5a7.47,7.47,0,0,0,4.08,13.31A17.33,17.33,0,0,0,514,705.08Z"/><path class="cls-4" d="M530.85,695.49a6.61,6.61,0,0,0-1.38-4.54,2.84,2.84,0,0,0-5.06,1.57l-.36,5a2.84,2.84,0,0,0,4.79,2.27A6.57,6.57,0,0,0,530.85,695.49Z"/><circle class="cls-4" cx="522.57" cy="708.32" r="3.03"/><path class="cls-4" d="M867.65,410.14a17.33,17.33,0,0,0,11.79,4,7.47,7.47,0,0,0,4.4-13.21l-10.11-8.4a7.47,7.47,0,0,0-12.18,6.74A17.35,17.35,0,0,0,867.65,410.14Z"/><path class="cls-4" d="M917.19,433.36a9.53,9.53,0,0,0,6.18,3,4.11,4.11,0,0,0,3.27-6.93l-5-5.25a4.11,4.11,0,0,0-7.1,2.88A9.64,9.64,0,0,0,917.19,433.36Z"/><circle class="cls-4" cx="924" cy="370.48" r="4.37"/><path class="cls-4" d="M117.23,803.24a17.38,17.38,0,0,0,8.24-9.35A7.47,7.47,0,0,0,115,784.76l-11.65,6.1a7.47,7.47,0,0,0,1.55,13.84A17.33,17.33,0,0,0,117.23,803.24Z"/><path class="cls-4" d="M135.6,797a6.65,6.65,0,0,0-.51-4.72,2.85,2.85,0,0,0-5.27.61l-1.28,4.84a2.84,2.84,0,0,0,4.29,3.12A6.6,6.6,0,0,0,135.6,797Z"/><circle class="cls-4" cx="125.08" cy="808.02" r="3.03"/><path class="cls-4" d="M597.17,677.81c1.27,3.26,1.52,6.2-1.73,7.46a6.32,6.32,0,0,1-8.19-3.6c-1.26-3.25.89-5.52,4.15-6.78S595.91,674.56,597.17,677.81Z"/><path class="cls-4" d="M124.69,677.81c1.26,3.26,1.51,6.2-1.74,7.46a6.31,6.31,0,0,1-8.18-3.6c-1.27-3.25.89-5.52,4.14-6.78S123.42,674.56,124.69,677.81Z"/></g></g></g></g></svg>